{"glyphs":{"0":{"ha":769,"x_min":0,"x_max":0,"o":"m 699 486 b 385 -18 699 167 628 -18 b 71 486 142 -18 71 167 b 385 990 71 806 142 990 b 699 486 628 990 699 806 m 185 486 b 385 88 185 257 201 88 b 583 486 568 88 583 258 b 385 885 583 714 568 885 b 185 486 201 885 185 713 "},"1":{"ha":432,"x_min":0,"x_max":0,"o":"m 56 906 l 224 972 l 315 972 l 315 0 l 203 0 l 203 858 l 90 813 "},"2":{"ha":708,"x_min":0,"x_max":0,"o":"m 61 42 b 522 713 61 313 522 464 b 346 885 522 811 458 885 b 164 735 236 885 185 814 l 65 763 b 349 990 81 843 156 990 b 638 715 533 990 638 871 b 190 100 638 426 203 268 l 651 100 l 651 0 l 61 0 "},"3":{"ha":729,"x_min":0,"x_max":0,"o":"m 631 867 l 376 569 b 665 283 501 569 665 488 b 357 -17 665 111 532 -17 b 54 194 164 -17 82 99 l 150 229 b 356 86 175 151 235 86 b 550 281 467 86 550 167 b 322 471 550 392 471 471 l 247 471 l 247 561 l 504 871 l 86 871 l 86 972 l 631 972 "},"4":{"ha":778,"x_min":0,"x_max":0,"o":"m 43 331 l 486 972 l 606 972 l 606 346 l 733 346 l 733 246 l 606 246 l 606 0 l 494 0 l 494 246 l 43 246 m 494 346 l 494 826 l 167 346 "},"5":{"ha":726,"x_min":0,"x_max":0,"o":"m 357 86 b 551 303 479 86 551 182 b 347 519 551 422 476 519 b 186 456 269 519 224 488 l 92 472 l 113 972 l 608 972 l 608 869 l 214 869 l 200 569 b 363 617 243 599 297 617 b 665 308 542 617 665 489 b 361 -18 665 124 544 -18 b 54 194 174 -18 83 99 l 151 229 b 357 86 175 150 238 86 "},"6":{"ha":758,"x_min":0,"x_max":0,"o":"m 388 88 b 578 314 500 88 578 167 b 386 528 578 433 513 528 b 182 393 292 528 222 472 b 388 88 182 232 208 88 m 428 990 b 647 921 529 990 603 951 l 596 835 b 432 885 563 858 513 885 b 185 521 238 885 185 689 b 401 631 221 572 289 631 b 690 317 585 631 690 497 b 383 -18 690 110 572 -18 b 68 408 136 -18 68 179 b 428 990 68 757 164 990 "},"7":{"ha":671,"x_min":0,"x_max":0,"o":"m 638 972 l 638 886 l 294 0 l 175 0 l 515 869 l 40 869 l 40 972 "},"8":{"ha":763,"x_min":0,"x_max":0,"o":"m 381 -18 b 63 272 193 -18 63 99 b 228 519 63 419 167 494 b 94 731 176 544 94 617 b 381 990 94 886 217 990 b 668 731 546 990 668 886 b 535 519 668 617 586 544 b 700 272 596 494 700 419 b 381 -18 700 99 568 -18 m 381 463 b 178 272 267 463 178 392 b 381 85 178 174 250 85 b 583 272 513 85 583 174 b 381 463 583 392 496 463 m 381 565 b 554 726 482 565 554 639 b 381 886 554 814 493 886 b 208 726 268 886 208 814 b 381 565 208 639 281 565 "},"9":{"ha":758,"x_min":0,"x_max":0,"o":"m 371 885 b 181 658 258 885 181 806 b 372 444 181 539 246 444 b 576 579 467 444 536 500 b 371 885 576 740 550 885 m 331 -18 b 111 51 229 -18 156 21 l 163 138 b 326 88 196 114 246 88 b 574 451 521 88 574 283 b 357 342 538 400 469 342 b 68 656 174 342 68 475 b 375 990 68 863 186 990 b 690 564 622 990 690 793 b 331 -18 690 215 594 -18 "}," ":{"ha":353,"x_min":0,"x_max":0,"o":""},"#":{"ha":900,"x_min":0,"x_max":0,"o":"m 203 267 l 42 267 l 60 357 l 221 357 l 275 614 l 115 614 l 132 704 l 294 704 l 350 972 l 449 972 l 394 704 l 594 704 l 650 972 l 749 972 l 694 704 l 857 704 l 840 614 l 675 614 l 622 357 l 786 357 l 768 267 l 603 267 l 547 0 l 449 0 l 503 267 l 301 267 l 246 0 l 147 0 m 522 357 l 576 614 l 375 614 l 321 357 "},"%":{"ha":1051,"x_min":0,"x_max":0,"o":"m 839 972 l 953 972 l 211 0 l 99 0 m 269 565 b 56 776 146 565 56 658 b 268 990 56 894 146 990 b 488 776 396 990 488 896 b 269 565 488 660 394 565 m 271 651 b 393 776 346 651 393 707 b 269 904 393 847 343 904 b 149 776 197 904 149 847 b 271 651 149 707 199 651 m 563 193 b 776 407 563 311 653 407 b 994 193 903 407 994 311 b 778 -18 994 75 901 -18 b 563 193 654 -18 563 74 m 656 193 b 778 67 656 122 706 67 b 900 193 853 67 900 122 b 776 319 900 264 851 319 b 656 193 704 319 656 264 "},"'":{"ha":232,"x_min":0,"x_max":0,"o":"m 67 972 l 164 972 l 156 697 l 75 697 "},"(":{"ha":415,"x_min":0,"x_max":0,"o":"m 203 19 b 318 -103 203 -50 233 -103 l 318 -199 b 93 25 175 -199 93 -128 l 93 836 b 318 1060 93 990 175 1060 l 318 964 b 203 842 233 964 203 913 "},")":{"ha":415,"x_min":0,"x_max":0,"o":"m 213 842 b 97 964 213 913 182 964 l 97 1060 b 322 836 240 1060 322 990 l 322 25 b 97 -199 322 -128 240 -199 l 97 -103 b 213 19 182 -103 213 -50 "},"*":{"ha":594,"x_min":0,"x_max":0,"o":"m 113 889 l 253 806 l 253 972 l 339 972 l 339 804 l 481 889 l 522 819 l 378 735 l 524 651 l 481 581 l 339 664 l 339 499 l 253 499 l 253 664 l 113 581 l 69 650 l 214 733 l 69 818 "},"+":{"ha":764,"x_min":0,"x_max":0,"o":"m 56 479 l 332 479 l 332 775 l 432 775 l 432 479 l 708 479 l 708 386 l 432 386 l 432 89 l 332 89 l 332 386 l 56 386 "},",":{"ha":294,"x_min":0,"x_max":0,"o":"m 68 60 b 144 138 68 103 101 138 b 226 54 190 138 226 106 b 119 -168 226 -44 179 -115 l 68 -118 b 136 -17 92 -100 129 -58 b 68 60 94 -11 68 24 "},"-":{"ha":469,"x_min":0,"x_max":0,"o":"m 57 469 l 411 469 l 411 367 l 57 367 "},".":{"ha":296,"x_min":0,"x_max":0,"o":"m 68 60 b 147 138 68 103 104 138 b 225 60 190 138 225 103 b 147 -18 225 17 190 -18 b 68 60 104 -18 68 17 "},"/":{"ha":592,"x_min":0,"x_max":0,"o":"m 456 1042 l 557 1042 l 136 -150 l 35 -150 "},":":{"ha":294,"x_min":0,"x_max":0,"o":"m 68 60 b 147 138 68 103 104 138 b 225 60 190 138 225 103 b 147 -18 225 17 190 -18 b 68 60 104 -18 68 17 m 68 599 b 147 676 68 642 104 676 b 225 599 190 676 225 642 b 147 519 225 556 190 519 b 68 599 104 519 68 556 "},";":{"ha":294,"x_min":0,"x_max":0,"o":"m 68 599 b 147 676 68 642 104 676 b 225 599 190 676 225 642 b 147 519 225 556 190 519 b 68 599 104 519 68 556 m 68 60 b 144 138 68 103 101 138 b 226 54 190 138 226 106 b 119 -168 226 -44 179 -115 l 68 -118 b 136 -17 92 -100 129 -61 b 68 60 94 -11 68 24 "},"<":{"ha":685,"x_min":0,"x_max":0,"o":"m 60 478 l 624 735 l 624 632 l 175 435 b 624 233 175 435 175 435 l 624 132 l 60 389 "},"=":{"ha":764,"x_min":0,"x_max":0,"o":"m 56 588 l 708 588 l 708 496 l 56 496 m 56 358 l 708 358 l 708 265 l 56 265 "},">":{"ha":685,"x_min":0,"x_max":0,"o":"m 625 389 l 60 132 l 60 233 b 510 435 510 435 510 435 l 60 632 l 60 735 l 625 478 "},"?":{"ha":649,"x_min":0,"x_max":0,"o":"m 236 310 b 478 726 236 499 478 544 b 311 889 478 819 417 889 b 142 772 208 889 164 821 l 54 813 b 314 990 81 886 157 990 b 593 731 488 990 593 879 b 344 306 593 504 344 460 l 344 244 l 236 244 m 214 60 b 293 138 214 103 250 138 b 371 60 336 138 371 103 b 293 -18 371 17 336 -18 b 214 60 250 -18 214 17 "},"@":{"ha":1238,"x_min":0,"x_max":0,"o":"m 346 360 b 607 633 346 524 463 633 b 783 553 708 633 767 575 l 783 625 l 876 625 l 876 271 b 961 169 876 208 900 169 b 1085 417 1031 169 1085 244 b 625 856 1085 671 910 856 b 153 367 342 856 153 635 b 617 -117 153 89 343 -117 b 876 -53 711 -117 803 -94 l 918 -121 b 617 -201 860 -161 747 -201 b 57 365 307 -201 57 36 b 626 939 57 690 294 939 b 1178 418 971 939 1178 701 b 954 86 1178 196 1089 86 b 803 192 869 86 819 133 b 610 86 786 163 724 86 b 346 360 463 86 346 194 m 446 360 b 617 172 446 246 519 172 b 788 363 708 172 788 236 b 615 546 788 471 719 546 b 446 360 521 546 446 475 "},"A":{"ha":876,"x_min":0,"x_max":0,"o":"m 247 315 l 131 0 l 17 0 l 381 972 l 494 972 l 858 0 l 744 0 l 628 315 m 438 849 l 282 413 l 594 413 "},"B":{"ha":756,"x_min":0,"x_max":0,"o":"m 110 972 l 378 972 b 667 724 563 972 667 878 b 542 510 667 626 618 551 b 700 276 635 476 700 394 b 407 0 700 101 574 0 l 110 0 m 390 551 b 551 715 488 551 551 617 b 390 872 551 811 494 872 l 222 872 l 222 551 m 388 99 b 583 279 503 99 583 154 b 386 457 583 407 499 457 l 222 457 l 222 99 "},"C":{"ha":911,"x_min":0,"x_max":0,"o":"m 861 93 b 547 -18 824 60 711 -18 b 54 486 263 -18 54 199 b 544 990 54 772 269 990 b 846 889 690 990 794 931 l 810 789 b 547 885 772 819 676 885 b 171 486 332 885 171 713 b 550 88 171 260 325 88 b 826 192 697 88 793 164 "},"D":{"ha":885,"x_min":0,"x_max":0,"o":"m 110 972 l 310 972 b 831 486 642 972 831 790 b 310 0 831 164 635 0 l 110 0 m 332 100 b 715 486 565 100 715 232 b 332 871 715 729 565 871 l 222 871 l 222 100 "},"E":{"ha":658,"x_min":0,"x_max":0,"o":"m 110 972 l 571 972 l 571 869 l 222 869 l 222 546 l 526 546 l 526 444 l 222 444 l 222 101 l 586 101 l 586 0 l 110 0 "},"F":{"ha":649,"x_min":0,"x_max":0,"o":"m 110 972 l 571 972 l 571 869 l 222 869 l 222 536 l 528 536 l 528 435 l 222 435 l 222 0 l 110 0 "},"G":{"ha":1022,"x_min":0,"x_max":0,"o":"m 546 990 b 904 849 739 990 854 900 l 832 774 b 549 885 788 817 701 885 b 172 485 325 885 172 713 b 547 86 172 250 331 86 b 832 188 710 86 801 157 l 832 392 l 615 392 l 615 490 l 940 490 l 940 139 b 543 -18 835 32 708 -18 b 54 485 267 -18 54 189 b 546 990 54 769 261 990 "},"H":{"ha":961,"x_min":0,"x_max":0,"o":"m 110 972 l 222 972 l 222 546 l 739 546 l 739 972 l 851 972 l 851 0 l 739 0 l 739 443 l 222 443 l 222 0 l 110 0 "},"I":{"ha":332,"x_min":0,"x_max":0,"o":"m 110 972 l 222 972 l 222 0 l 110 0 "},"J":{"ha":479,"x_min":0,"x_max":0,"o":"m 43 106 b 135 93 43 106 89 93 b 257 235 211 93 257 136 l 257 972 l 369 972 l 369 219 b 147 -8 369 69 285 -8 b 31 6 89 -8 43 1 "},"K":{"ha":785,"x_min":0,"x_max":0,"o":"m 110 972 l 222 972 l 222 525 l 610 972 l 746 972 l 338 507 l 763 0 l 625 0 l 222 489 l 222 0 l 110 0 "},"L":{"ha":624,"x_min":0,"x_max":0,"o":"m 110 972 l 222 972 l 222 101 l 586 101 l 586 0 l 110 0 "},"M":{"ha":1204,"x_min":0,"x_max":0,"o":"m 601 222 l 951 972 l 1094 972 l 1094 0 l 986 0 l 986 803 l 657 89 l 546 89 l 217 803 l 217 0 l 108 0 l 108 972 l 253 972 "},"N":{"ha":978,"x_min":0,"x_max":0,"o":"m 108 972 l 221 972 l 757 199 l 757 972 l 868 972 l 868 0 l 757 0 l 221 771 l 221 0 l 108 0 "},"O":{"ha":1099,"x_min":0,"x_max":0,"o":"m 53 486 b 549 990 53 772 267 990 b 1044 486 832 990 1044 769 b 547 -18 1044 200 831 -18 b 53 486 265 -18 53 197 m 169 486 b 549 88 169 256 333 88 b 928 486 764 88 928 256 b 549 885 928 714 764 885 b 169 486 333 885 169 714 "},"P":{"ha":706,"x_min":0,"x_max":0,"o":"m 110 972 l 376 972 b 667 692 553 972 667 868 b 376 407 667 517 547 407 l 222 407 l 222 0 l 110 0 m 367 507 b 551 692 483 507 551 579 b 367 872 551 803 483 872 l 222 872 l 222 507 "},"Q":{"ha":1099,"x_min":0,"x_max":0,"o":"m 53 486 b 549 990 53 772 267 990 b 1044 486 832 990 1044 769 b 926 156 1044 357 1000 242 l 1029 54 l 956 -19 l 851 82 b 547 -18 769 18 663 -18 b 53 486 265 -18 53 197 m 169 486 b 549 88 169 256 333 88 b 772 158 632 88 713 113 l 664 263 l 736 338 l 844 233 b 928 486 899 299 928 386 b 549 885 928 714 764 885 b 169 486 333 885 169 714 "},"R":{"ha":760,"x_min":0,"x_max":0,"o":"m 110 972 l 357 972 b 660 703 556 972 660 872 b 490 446 660 588 603 482 l 732 0 l 607 0 l 388 422 l 222 422 l 222 0 l 110 0 m 357 521 b 542 701 471 521 542 574 b 350 872 542 804 488 872 l 222 872 l 222 521 "},"S":{"ha":703,"x_min":0,"x_max":0,"o":"m 143 238 b 356 86 169 163 228 86 b 532 247 458 86 532 146 b 76 742 532 490 76 428 b 354 990 76 881 182 990 b 629 804 528 990 606 869 l 535 765 b 353 888 513 814 460 888 b 189 742 246 888 189 822 b 646 254 189 519 646 565 b 351 -18 646 101 533 -18 b 47 196 163 -18 78 103 "},"T":{"ha":710,"x_min":0,"x_max":0,"o":"m 292 869 l 29 869 l 29 972 l 665 972 l 665 869 l 404 869 l 404 0 l 292 0 "},"U":{"ha":933,"x_min":0,"x_max":0,"o":"m 467 -18 b 104 349 233 -18 104 128 l 104 972 l 217 972 l 217 350 b 467 86 217 189 303 86 b 718 351 631 86 718 189 l 718 972 l 829 972 l 829 350 b 467 -18 829 131 697 -18 "},"V":{"ha":885,"x_min":0,"x_max":0,"o":"m 382 0 l 13 972 l 136 972 l 442 133 l 749 972 l 872 972 l 503 0 "},"W":{"ha":1310,"x_min":0,"x_max":0,"o":"m 654 807 l 418 0 l 293 0 l 15 972 l 136 972 l 360 143 l 599 972 l 710 972 l 949 143 l 1174 972 l 1293 972 l 1017 0 l 890 0 "},"X":{"ha":838,"x_min":0,"x_max":0,"o":"m 349 503 l 42 972 l 176 972 l 418 589 l 661 972 l 793 972 l 486 503 l 818 0 l 690 0 l 415 418 l 144 0 l 18 0 "},"Y":{"ha":739,"x_min":0,"x_max":0,"o":"m 314 456 l 13 972 l 142 972 l 369 563 l 601 972 l 726 972 l 425 456 l 425 0 l 314 0 "},"Z":{"ha":825,"x_min":0,"x_max":0,"o":"m 49 82 l 621 871 l 67 871 l 67 972 l 767 972 l 767 889 l 193 101 l 769 101 l 769 0 l 49 0 "},"[":{"ha":415,"x_min":0,"x_max":0,"o":"m 93 1060 l 318 1060 l 318 964 l 203 964 l 203 -103 l 318 -103 l 318 -199 l 93 -199 "},"\\":{"ha":592,"x_min":0,"x_max":0,"o":"m 557 -150 l 456 -150 l 35 1042 l 136 1042 "},"]":{"ha":424,"x_min":0,"x_max":0,"o":"m 322 -199 l 97 -199 l 97 -103 l 213 -103 l 213 964 l 97 964 l 97 1060 l 322 1060 "},"^":{"ha":726,"x_min":0,"x_max":0,"o":"m 315 972 l 410 972 l 664 442 l 554 442 l 363 861 l 171 442 l 63 442 "},"_":{"ha":842,"x_min":0,"x_max":0,"o":"m 796 -40 l 796 -132 l 46 -132 l 46 -40 "},"`":{"ha":679,"x_min":0,"x_max":0,"o":"m 450 810 l 353 810 l 231 1007 l 350 1007 "},"a":{"ha":708,"x_min":0,"x_max":0,"o":"m 47 222 b 325 460 47 360 163 460 b 515 394 417 460 486 425 l 515 483 b 340 643 515 585 447 643 b 128 581 251 643 179 611 l 83 661 b 350 740 132 692 228 740 b 625 476 547 740 625 631 l 625 0 l 531 0 l 518 61 b 322 -18 481 18 419 -18 b 47 222 164 -18 47 82 m 158 224 b 340 74 158 140 229 74 b 519 224 446 74 519 136 b 339 372 519 314 447 372 b 158 224 229 372 158 308 "},"b":{"ha":850,"x_min":0,"x_max":0,"o":"m 94 1004 l 204 1004 l 204 606 b 460 740 226 643 308 740 b 804 360 664 740 804 582 b 451 -18 804 139 657 -18 b 200 114 294 -18 218 88 l 200 0 l 94 0 m 200 358 b 444 81 200 207 294 81 b 692 358 583 81 692 190 b 447 640 692 524 589 640 b 200 358 311 640 200 538 "},"c":{"ha":711,"x_min":0,"x_max":0,"o":"m 632 547 b 418 639 603 578 528 639 b 160 361 267 639 160 518 b 421 82 160 206 272 82 b 636 178 535 82 607 149 l 669 85 b 417 -18 640 54 551 -18 b 46 361 201 -18 46 147 b 415 740 46 575 206 740 b 669 642 547 740 632 678 "},"d":{"ha":850,"x_min":0,"x_max":0,"o":"m 756 0 l 649 0 l 649 114 b 399 -18 631 88 556 -18 b 46 360 192 -18 46 139 b 390 740 46 582 185 740 b 644 606 540 740 624 643 l 644 1004 l 756 1004 m 649 358 b 403 640 649 538 538 640 b 158 358 261 640 158 524 b 404 81 158 190 265 81 b 649 358 556 81 649 207 "},"e":{"ha":785,"x_min":0,"x_max":0,"o":"m 47 358 b 397 740 47 589 206 740 b 740 371 610 740 740 588 b 739 338 740 367 740 351 l 160 338 b 419 79 161 176 269 79 b 644 192 542 79 610 143 l 717 139 b 418 -18 676 71 582 -18 b 47 358 199 -18 47 136 m 628 419 b 397 646 621 569 517 646 b 165 419 279 646 174 556 "},"f":{"ha":408,"x_min":0,"x_max":0,"o":"m 117 629 l 36 629 l 36 722 l 117 722 l 117 760 b 343 1000 117 942 226 1000 b 389 997 367 1000 389 997 l 389 901 b 354 904 389 901 371 904 b 228 760 272 904 228 860 l 228 722 l 382 722 l 382 629 l 228 629 l 228 0 l 117 0 "},"g":{"ha":843,"x_min":0,"x_max":0,"o":"m 172 -108 b 390 -168 200 -125 286 -168 b 644 50 528 -168 644 -111 l 644 114 b 394 -18 628 88 553 -18 b 46 360 188 -18 46 139 b 393 740 46 582 189 740 b 649 606 543 740 625 644 l 649 722 l 754 722 l 754 100 b 392 -267 754 -174 600 -267 b 133 -194 297 -267 196 -233 m 649 360 b 401 640 649 535 539 640 b 157 360 261 640 157 525 b 404 82 157 192 265 82 b 649 360 553 82 649 204 "},"h":{"ha":761,"x_min":0,"x_max":0,"o":"m 418 740 b 674 451 586 740 674 615 l 674 0 l 564 0 l 564 456 b 393 640 564 571 490 640 b 204 439 282 640 204 558 l 204 0 l 94 0 l 94 1004 l 204 1004 l 204 618 b 418 740 239 683 319 740 "},"i":{"ha":299,"x_min":0,"x_max":0,"o":"m 94 722 l 204 722 l 204 0 l 94 0 m 74 908 b 149 983 74 950 107 983 b 225 908 192 983 225 950 b 149 832 225 865 192 832 b 74 908 107 832 74 865 "},"j":{"ha":299,"x_min":0,"x_max":0,"o":"m 94 722 l 204 722 l 204 -24 b -21 -265 204 -207 103 -265 b -58 -262 -39 -265 -58 -262 l -58 -168 b -28 -169 -58 -168 -40 -169 b 94 -21 53 -169 94 -124 m 74 908 b 149 983 74 950 107 983 b 225 908 192 983 225 950 b 149 832 225 865 192 832 b 74 908 107 832 74 865 "},"k":{"ha":664,"x_min":0,"x_max":0,"o":"m 94 1004 l 204 1004 l 204 413 l 499 722 l 638 722 l 326 399 l 656 0 l 514 0 l 204 385 l 204 0 l 94 0 "},"l":{"ha":299,"x_min":0,"x_max":0,"o":"m 94 1004 l 204 1004 l 204 0 l 94 0 "},"m":{"ha":1193,"x_min":0,"x_max":0,"o":"m 1104 0 l 994 0 l 994 435 b 832 640 994 571 939 640 b 654 433 731 640 654 568 l 654 0 l 544 0 l 544 456 b 379 640 544 571 481 640 b 204 438 283 640 204 560 l 204 0 l 94 0 l 94 722 l 203 722 b 203 618 203 656 203 618 b 407 740 231 681 307 740 b 625 608 515 740 592 688 b 857 740 668 694 754 740 b 1104 468 1018 740 1104 626 "},"n":{"ha":761,"x_min":0,"x_max":0,"o":"m 418 740 b 672 451 586 740 672 615 l 672 0 l 563 0 l 563 456 b 392 640 563 571 490 640 b 204 439 281 640 204 558 l 204 0 l 94 0 l 94 722 l 203 722 l 203 618 b 418 740 238 683 318 740 "},"o":{"ha":846,"x_min":0,"x_max":0,"o":"m 158 361 b 422 82 158 199 268 82 b 689 361 578 82 689 200 b 422 640 689 521 578 640 b 158 361 267 640 158 519 m 46 361 b 424 740 46 579 208 740 b 800 361 642 740 800 578 b 422 -18 800 144 639 -18 b 46 361 206 -18 46 142 "},"p":{"ha":851,"x_min":0,"x_max":0,"o":"m 94 722 l 200 722 l 200 608 b 451 740 218 635 294 740 b 804 363 657 740 804 583 b 460 -18 804 139 664 -18 b 204 117 308 -18 226 79 l 204 -260 l 94 -260 m 200 363 b 447 82 200 185 311 82 b 692 363 589 82 692 197 b 444 640 692 532 583 640 b 200 363 294 640 200 514 "},"q":{"ha":851,"x_min":0,"x_max":0,"o":"m 756 -260 l 646 -260 l 646 117 b 392 -18 625 79 542 -18 b 47 363 186 -18 47 139 b 400 740 47 583 193 740 b 650 608 557 740 632 635 l 650 722 l 756 722 m 650 363 b 406 640 650 514 557 640 b 158 363 267 640 158 532 b 403 82 158 197 263 82 b 650 363 539 82 650 185 "},"r":{"ha":446,"x_min":0,"x_max":0,"o":"m 418 631 b 204 346 253 631 204 500 l 204 0 l 94 0 l 94 722 l 203 722 l 203 601 b 418 740 228 674 308 740 "},"s":{"ha":579,"x_min":0,"x_max":0,"o":"m 117 186 b 297 75 147 129 199 75 b 431 190 369 75 431 117 b 68 544 431 357 68 300 b 300 740 68 667 169 740 b 524 601 435 740 504 656 l 443 556 b 293 649 424 594 386 649 b 174 549 226 649 174 611 b 538 196 174 386 538 447 b 292 -18 538 68 432 -18 b 40 136 140 -18 72 68 "},"t":{"ha":410,"x_min":0,"x_max":0,"o":"m 103 874 l 213 874 l 213 722 l 371 722 l 371 629 l 213 629 l 213 257 b 346 90 213 122 251 90 b 376 92 360 90 376 92 l 376 -6 b 310 -10 376 -6 347 -10 b 103 247 165 -10 103 85 l 103 629 l 18 629 l 18 722 l 103 722 "},"u":{"ha":754,"x_min":0,"x_max":0,"o":"m 343 -18 b 88 271 175 -18 88 107 l 88 722 l 197 722 l 197 267 b 368 82 197 151 271 82 b 556 283 479 82 556 164 l 556 722 l 667 722 l 667 0 l 557 0 l 557 104 b 343 -18 524 39 442 -18 "},"v":{"ha":696,"x_min":0,"x_max":0,"o":"m 288 0 l 8 722 l 126 722 l 349 124 l 569 722 l 686 722 l 408 0 "},"w":{"ha":1133,"x_min":0,"x_max":0,"o":"m 567 574 l 374 0 l 253 0 l 10 722 l 129 722 l 318 128 b 513 722 318 128 319 131 l 621 722 b 814 128 813 131 814 128 l 1004 722 l 1124 722 l 879 0 l 758 0 "},"x":{"ha":700,"x_min":0,"x_max":0,"o":"m 350 292 l 140 0 l 15 0 l 285 374 l 35 722 l 164 722 l 350 451 l 536 722 l 665 722 l 415 374 l 685 0 l 558 0 "},"y":{"ha":706,"x_min":0,"x_max":0,"o":"m 199 -249 l 303 7 l 8 722 l 128 722 l 357 142 l 579 722 l 696 722 l 308 -249 "},"z":{"ha":642,"x_min":0,"x_max":0,"o":"m 44 78 l 458 628 l 57 628 l 57 722 l 588 722 l 588 643 l 175 93 l 594 93 l 594 0 l 44 0 "},"{":{"ha":474,"x_min":0,"x_max":0,"o":"m 151 224 b 50 381 151 339 114 381 l 50 481 b 151 638 115 481 151 522 l 151 836 b 376 1060 151 990 233 1060 l 376 964 b 261 842 292 964 261 913 l 261 613 b 168 431 261 481 192 439 b 261 249 192 422 261 381 l 261 19 b 376 -103 261 -51 292 -103 l 376 -199 b 151 25 233 -199 151 -129 "},"|":{"ha":350,"x_min":0,"x_max":0,"o":"m 122 1088 l 228 1088 l 228 -286 l 122 -286 "},"}":{"ha":474,"x_min":0,"x_max":0,"o":"m 322 25 b 97 -199 322 -129 240 -199 l 97 -103 b 213 19 182 -103 213 -51 l 213 249 b 306 431 213 381 282 422 b 213 613 282 439 213 481 l 213 842 b 97 964 213 913 182 964 l 97 1060 b 322 836 240 1060 322 990 l 322 638 b 424 481 322 522 358 481 l 424 381 b 322 224 360 381 322 339 "},"~":{"ha":744,"x_min":0,"x_max":0,"o":"m 503 425 b 590 521 563 425 589 471 l 682 521 b 507 326 682 421 622 326 b 242 422 399 326 342 422 b 153 326 181 422 156 376 l 63 326 b 239 521 63 436 126 521 b 503 425 349 521 426 425 "},"¡":{"ha":358,"x_min":0,"x_max":0,"o":"m 238 -212 l 122 -212 l 132 515 l 228 515 m 258 700 b 179 622 258 657 222 622 b 101 700 136 622 101 657 b 179 778 101 743 136 778 b 258 700 222 778 258 743 "},"£":{"ha":771,"x_min":0,"x_max":0,"o":"m 67 531 l 147 531 l 147 710 b 428 990 147 875 254 990 b 685 813 586 990 664 885 l 594 772 b 429 885 576 821 525 885 b 260 704 317 885 260 814 l 260 531 l 493 531 l 493 438 l 260 438 l 260 100 l 706 100 l 706 0 l 54 0 l 54 100 l 147 100 l 147 438 l 67 438 "},"¥":{"ha":764,"x_min":0,"x_max":0,"o":"m 106 538 l 279 538 l 25 972 l 154 972 l 382 563 l 614 972 l 739 972 l 485 538 l 658 538 l 658 454 l 438 454 l 438 329 l 658 329 l 658 247 l 438 247 l 438 0 l 326 0 l 326 247 l 106 247 l 106 329 l 326 329 l 326 454 l 106 454 "},"¨":{"ha":679,"x_min":0,"x_max":0,"o":"m 156 907 b 225 976 156 944 186 976 b 294 907 265 976 294 944 b 225 838 294 868 265 838 b 156 907 186 838 156 868 m 383 907 b 453 976 383 944 413 976 b 522 907 492 976 522 944 b 453 838 522 868 492 838 b 383 907 413 838 383 868 "},"©":{"ha":1117,"x_min":0,"x_max":0,"o":"m 60 483 b 554 990 60 764 271 990 b 1056 483 846 990 1056 765 b 557 -19 1056 201 849 -19 b 60 483 268 -19 60 201 m 149 483 b 557 60 149 243 317 60 b 967 485 800 60 967 242 b 554 910 967 725 800 910 b 149 483 317 910 149 725 m 306 482 b 563 751 306 632 404 751 b 769 651 671 751 739 692 l 708 594 b 563 665 689 618 642 665 b 400 483 456 665 400 586 b 563 301 400 381 456 301 b 708 372 642 301 689 349 l 769 317 b 563 215 739 275 671 215 b 306 482 404 215 306 332 "},"ª":{"ha":567,"x_min":0,"x_max":0,"o":"m 61 600 b 272 781 61 706 147 781 b 411 736 335 781 386 757 l 411 793 b 283 910 411 868 360 910 b 122 863 218 910 163 885 l 86 929 b 292 990 124 953 196 990 b 499 788 440 990 499 906 l 499 429 l 424 429 l 414 471 b 269 417 385 440 338 417 b 61 600 149 417 61 492 m 149 601 b 283 492 149 540 201 492 b 415 601 360 492 415 536 b 283 708 415 665 361 708 b 149 601 201 708 149 661 "},"«":{"ha":594,"x_min":0,"x_max":0,"o":"m 440 661 l 547 661 l 374 406 l 547 151 l 440 151 l 267 406 m 47 406 l 219 661 l 326 661 l 154 406 l 326 151 l 219 151 "},"®":{"ha":628,"x_min":0,"x_max":0,"o":"m 282 711 l 282 597 l 217 597 l 217 897 l 321 897 b 424 806 388 897 424 861 b 378 726 424 764 403 738 l 435 597 l 367 597 l 321 711 m 282 840 l 282 768 l 321 768 b 356 804 343 768 356 783 b 321 840 356 826 342 840 m 26 747 b 310 1031 26 904 139 1031 b 599 749 488 1031 599 906 b 313 465 599 594 489 465 b 26 747 139 465 26 589 m 90 747 b 313 524 90 621 174 524 b 535 749 453 524 535 618 b 310 971 535 879 451 971 b 90 747 174 971 90 876 "},"¯":{"ha":626,"x_min":0,"x_max":0,"o":"m 144 961 l 481 961 l 481 874 l 144 874 "},"°":{"ha":494,"x_min":0,"x_max":0,"o":"m 43 789 b 246 990 43 899 126 990 b 450 790 367 990 450 900 b 246 589 450 678 368 589 b 43 789 124 589 43 678 m 131 789 b 246 671 131 722 175 671 b 361 790 317 671 361 722 b 246 908 361 857 317 908 b 131 789 176 908 131 856 "},"²":{"ha":475,"x_min":0,"x_max":0,"o":"m 65 478 b 321 818 65 644 321 706 b 232 901 321 864 288 901 b 136 829 174 901 149 858 l 64 858 b 235 983 83 914 133 983 b 411 819 343 983 411 915 b 165 500 411 667 174 618 l 419 500 l 419 422 l 65 422 "},"³":{"ha":474,"x_min":0,"x_max":0,"o":"m 406 906 l 261 749 b 424 585 347 747 424 688 b 236 411 424 474 340 411 b 54 536 131 411 78 476 l 125 567 b 235 492 140 532 171 492 b 332 586 289 492 332 524 b 218 683 332 647 293 683 l 167 683 l 167 751 l 297 893 l 79 893 l 79 972 l 406 972 "},"´":{"ha":679,"x_min":0,"x_max":0,"o":"m 328 1007 l 449 1007 l 325 810 l 229 810 "},"¶":{"ha":701,"x_min":0,"x_max":0,"o":"m 319 457 b 58 715 172 458 58 572 b 315 972 58 858 172 972 l 414 972 l 414 -62 l 319 -62 m 504 972 l 600 972 l 600 -62 l 504 -62 "},"·":{"ha":314,"x_min":0,"x_max":0,"o":"m 78 436 b 156 514 78 479 113 514 b 235 436 199 514 235 479 b 156 357 235 393 199 357 b 78 436 113 357 78 393 "},"¸":{"ha":626,"x_min":0,"x_max":0,"o":"m 318 14 l 307 -65 b 418 -183 376 -72 418 -119 b 261 -312 418 -276 343 -312 b 203 -306 238 -312 207 -307 l 215 -235 b 257 -239 215 -235 238 -239 b 335 -182 296 -239 335 -228 b 256 -125 335 -144 303 -125 b 229 -128 242 -125 229 -128 l 249 14 "},"¹":{"ha":353,"x_min":0,"x_max":0,"o":"m 64 931 l 174 972 l 246 972 l 246 422 l 157 422 l 157 883 l 88 856 "},"º":{"ha":650,"x_min":0,"x_max":0,"o":"m 128 701 b 324 496 128 583 208 496 b 518 703 438 496 518 585 b 324 908 518 821 438 908 b 128 701 208 908 128 819 m 38 701 b 325 990 38 868 160 990 b 608 703 489 990 608 868 b 324 417 608 539 486 417 b 38 701 158 417 38 538 "},"»":{"ha":594,"x_min":0,"x_max":0,"o":"m 328 406 l 154 151 l 47 151 l 221 406 l 47 661 l 154 661 m 375 151 l 268 151 l 440 406 l 268 661 l 375 661 l 547 406 "},"¼":{"ha":1096,"x_min":0,"x_max":0,"o":"m 228 -57 l 768 1029 l 869 1029 l 329 -57 m 888 110 l 624 110 l 624 178 l 886 550 l 976 550 l 976 189 l 1047 189 l 1047 110 l 976 110 l 976 0 l 888 0 m 888 189 l 888 436 b 717 189 718 189 717 189 m 104 931 l 213 972 l 286 972 l 286 422 l 196 422 l 196 883 l 128 856 "},"½":{"ha":1110,"x_min":0,"x_max":0,"o":"m 104 931 l 213 972 l 286 972 l 286 422 l 196 422 l 196 883 l 128 856 m 200 -57 l 742 1029 l 843 1029 l 301 -57 m 678 56 b 933 396 678 222 933 283 b 844 479 933 442 900 479 b 749 407 786 479 761 436 l 676 436 b 847 561 696 492 746 561 b 1024 397 956 561 1024 493 b 778 78 1024 244 786 196 l 1032 78 l 1032 0 l 678 0 "},"¾":{"ha":1172,"x_min":0,"x_max":0,"o":"m 304 -57 l 846 1029 l 947 1029 l 406 -57 m 942 110 l 678 110 l 678 178 l 940 550 l 1031 550 l 1031 189 l 1101 189 l 1101 110 l 1031 110 l 1031 0 l 942 0 m 942 189 l 942 436 b 771 189 772 189 771 189 m 426 906 l 282 749 b 444 585 368 747 444 688 b 257 411 444 474 361 411 b 75 536 151 411 99 476 l 146 567 b 256 492 161 532 192 492 b 353 586 310 492 353 524 b 239 683 353 647 314 683 l 188 683 l 188 751 l 318 893 l 100 893 l 100 972 l 426 972 "},"¿":{"ha":649,"x_min":0,"x_max":0,"o":"m 411 449 b 169 32 411 260 169 214 b 336 -131 169 -61 231 -131 b 507 -14 440 -131 485 -62 l 593 -54 b 333 -231 567 -128 492 -231 b 54 28 160 -231 54 -121 b 303 453 54 254 303 299 l 303 514 l 411 514 m 433 699 b 356 621 433 656 399 621 b 278 699 313 621 278 656 b 356 778 278 742 313 778 b 433 699 399 778 433 742 "},"Æ":{"ha":1126,"x_min":0,"x_max":0,"o":"m 507 972 l 1039 972 l 1039 869 l 690 869 l 690 546 l 994 546 l 994 444 l 690 444 l 690 101 l 1053 101 l 1053 0 l 578 0 l 578 315 l 288 315 l 133 0 l 11 0 m 335 413 l 578 413 l 578 869 l 557 869 "},"Ð":{"ha":889,"x_min":0,"x_max":0,"o":"m 33 542 l 114 542 l 114 972 l 315 972 b 836 486 646 972 836 790 b 315 0 836 164 639 0 l 114 0 l 114 442 l 33 442 m 338 100 b 719 486 571 100 719 232 b 338 871 719 729 571 871 l 226 871 l 226 542 l 428 542 l 428 442 l 226 442 l 226 100 "},"×":{"ha":738,"x_min":0,"x_max":0,"o":"m 303 428 l 65 685 l 131 751 l 368 496 l 606 751 l 669 686 l 431 429 l 671 171 l 606 106 l 367 363 l 131 107 l 65 172 "},"Þ":{"ha":713,"x_min":0,"x_max":0,"o":"m 110 972 l 222 972 l 222 782 l 382 782 b 672 503 558 782 672 679 b 382 218 672 326 551 218 l 222 218 l 222 0 l 110 0 m 372 317 b 557 501 488 317 557 389 b 372 682 557 614 489 682 l 222 682 l 222 317 "},"ß":{"ha":747,"x_min":0,"x_max":0,"o":"m 350 901 b 203 740 251 901 203 844 l 203 0 l 92 0 l 92 760 b 350 1000 92 929 199 1000 b 599 796 507 1000 599 903 b 489 615 599 696 547 642 b 706 331 610 581 706 479 b 329 0 706 103 540 0 l 329 97 b 593 329 447 97 593 154 b 329 557 593 482 460 557 l 329 653 b 488 781 404 653 488 692 b 350 901 488 856 432 901 "},"ð":{"ha":821,"x_min":0,"x_max":0,"o":"m 49 344 b 407 697 49 546 194 697 b 557 654 475 697 531 672 b 403 810 515 717 446 782 l 179 722 l 167 803 l 329 868 b 178 960 282 901 231 932 l 249 1014 b 438 907 308 988 379 947 l 608 974 l 622 893 l 508 847 b 767 372 676 713 767 551 b 403 -18 767 157 643 -18 b 49 344 190 -18 49 143 m 161 344 b 404 81 161 200 256 81 b 654 361 572 81 654 210 b 413 604 654 493 556 604 b 161 344 253 604 161 486 "},"÷":{"ha":764,"x_min":0,"x_max":0,"o":"m 311 674 b 382 744 311 713 343 744 b 451 674 421 744 451 713 b 382 604 451 635 421 604 b 311 674 343 604 311 635 m 311 190 b 382 261 311 229 343 261 b 451 190 421 261 451 229 b 382 121 451 153 421 121 b 311 190 343 121 311 153 m 56 479 l 708 479 l 708 386 l 56 386 "},"þ":{"ha":851,"x_min":0,"x_max":0,"o":"m 94 1004 l 204 1004 l 204 611 b 451 740 225 639 299 740 b 804 363 657 740 804 583 b 460 -18 804 139 664 -18 b 204 117 308 -18 226 79 l 204 -260 l 94 -260 m 200 363 b 447 82 200 185 311 82 b 692 363 589 82 692 197 b 444 640 692 532 583 640 b 200 363 294 640 200 514 "},"Đ":{"ha":885,"x_min":0,"x_max":0,"o":"m 33 542 l 114 542 l 114 972 l 315 972 b 836 486 646 972 836 790 b 315 0 836 164 639 0 l 114 0 l 114 442 l 33 442 m 338 100 b 719 486 571 100 719 232 b 338 871 719 729 571 871 l 226 871 l 226 542 l 428 542 l 428 442 l 226 442 l 226 100 "},"ı":{"ha":299,"x_min":0,"x_max":0,"o":"m 94 722 l 204 722 l 204 0 l 94 0 "},"ƒ":{"ha":632,"x_min":0,"x_max":0,"o":"m 282 42 b 268 -51 278 10 274 -21 b 28 -267 239 -218 129 -267 b -53 -258 -14 -267 -53 -258 l -39 -164 b 25 -171 -39 -164 -8 -171 b 169 14 108 -171 151 -122 l 235 488 l 135 488 l 135 581 l 247 581 l 271 751 b 515 983 296 931 408 983 b 596 975 558 983 596 975 l 583 881 b 518 888 583 881 551 888 b 376 731 440 888 393 850 l 357 581 l 501 581 l 501 488 l 344 488 "},"ˆ":{"ha":626,"x_min":0,"x_max":0,"o":"m 313 939 l 228 825 l 124 825 l 254 1006 l 371 1006 l 501 825 l 399 825 "},"ˇ":{"ha":626,"x_min":0,"x_max":0,"o":"m 399 1006 l 501 1006 l 371 825 l 254 825 l 124 1006 l 228 1006 l 313 892 "},"˘":{"ha":626,"x_min":0,"x_max":0,"o":"m 313 815 b 136 990 196 815 136 893 l 224 990 b 313 892 224 936 247 892 b 401 990 376 892 401 936 l 489 990 b 313 815 489 893 429 815 "},"˙":{"ha":626,"x_min":0,"x_max":0,"o":"m 238 908 b 313 983 238 950 271 983 b 389 908 356 983 389 950 b 313 832 389 865 356 832 b 238 908 271 832 238 865 "},"˚":{"ha":626,"x_min":0,"x_max":0,"o":"m 188 922 b 311 1043 188 993 240 1043 b 438 924 386 1043 438 993 b 313 801 438 853 385 801 b 188 922 240 801 188 853 m 256 922 b 313 864 256 888 278 864 b 369 924 349 864 369 888 b 311 981 369 957 349 981 b 256 922 278 981 256 957 "},"˛":{"ha":626,"x_min":0,"x_max":0,"o":"m 214 -140 b 318 0 214 -71 272 -18 l 411 0 b 314 -115 386 -10 314 -53 b 399 -182 314 -162 356 -182 l 399 -268 b 365 -271 399 -268 388 -271 b 214 -140 292 -271 214 -229 "},"˜":{"ha":626,"x_min":0,"x_max":0,"o":"m 401 835 b 226 897 329 835 281 897 b 174 836 196 897 175 874 l 94 836 b 225 982 94 925 149 982 b 399 921 296 982 349 921 b 451 982 429 921 450 944 l 529 982 b 401 835 529 893 478 835 "},"˝":{"ha":635,"x_min":0,"x_max":0,"o":"m 396 1007 l 511 1007 l 388 810 l 297 810 m 221 1007 l 336 1007 l 213 810 l 122 810 "},"–":{"ha":833,"x_min":0,"x_max":0,"o":"m 57 465 l 776 465 l 776 371 l 57 371 "},"—":{"ha":1203,"x_min":0,"x_max":0,"o":"m 57 465 l 1144 465 l 1144 371 l 57 371 "},"‘":{"ha":257,"x_min":0,"x_max":0,"o":"m 206 768 b 129 689 206 725 172 689 b 47 774 83 689 47 722 b 154 994 47 871 94 943 l 206 944 b 138 844 182 928 144 886 b 206 768 179 838 206 804 "},"’":{"ha":257,"x_min":0,"x_max":0,"o":"m 51 917 b 126 994 51 960 83 994 b 208 911 174 994 208 963 b 101 689 208 813 161 742 l 50 739 b 118 840 74 757 111 799 b 51 917 76 846 51 881 "},"‚":{"ha":294,"x_min":0,"x_max":0,"o":"m 68 60 b 144 138 68 103 101 138 b 226 54 190 138 226 106 b 119 -168 226 -44 179 -115 l 68 -118 b 136 -17 92 -100 129 -58 b 68 60 94 -11 68 24 "},"“":{"ha":463,"x_min":0,"x_max":0,"o":"m 206 768 b 129 689 206 725 172 689 b 47 774 83 689 47 722 b 154 994 47 871 94 943 l 206 944 b 138 844 182 928 144 886 b 206 768 179 838 206 804 m 411 768 b 335 689 411 725 378 689 b 253 774 289 689 253 722 b 360 994 253 871 300 943 l 411 944 b 343 844 388 928 350 886 b 411 768 385 838 411 804 "},"”":{"ha":463,"x_min":0,"x_max":0,"o":"m 257 917 b 332 994 257 960 289 994 b 414 911 379 994 414 963 b 307 689 414 813 367 742 l 256 739 b 324 840 279 757 317 799 b 257 917 282 846 257 881 m 51 917 b 126 994 51 960 83 994 b 208 911 174 994 208 963 b 101 689 208 813 161 742 l 50 739 b 118 840 74 757 111 799 b 51 917 76 846 51 881 "},"„":{"ha":463,"x_min":0,"x_max":0,"o":"m 257 60 b 332 138 257 103 289 138 b 414 54 379 138 414 106 b 307 -168 414 -44 367 -115 l 256 -118 b 324 -17 279 -100 317 -58 b 257 60 282 -11 257 24 m 51 60 b 126 138 51 103 83 138 b 208 54 174 138 208 106 b 101 -168 208 -44 161 -115 l 50 -118 b 118 -17 74 -100 111 -58 b 51 60 76 -11 51 24 "},"†":{"ha":525,"x_min":0,"x_max":0,"o":"m 206 633 l 46 633 l 46 731 l 206 731 l 206 972 l 315 972 l 315 731 l 478 731 l 478 633 l 315 633 l 315 0 l 206 0 "},"‡":{"ha":546,"x_min":0,"x_max":0,"o":"m 57 360 l 217 360 l 217 611 l 57 611 l 57 708 l 217 708 l 217 972 l 325 972 l 325 708 l 489 708 l 489 611 l 325 611 l 325 360 l 489 360 l 489 263 l 325 263 l 325 0 l 217 0 l 217 263 l 57 263 "},"•":{"ha":564,"x_min":0,"x_max":0,"o":"m 282 192 b 43 431 144 192 43 299 b 282 669 43 563 144 669 b 521 431 419 669 521 563 b 282 192 521 299 419 192 "},"…":{"ha":938,"x_min":0,"x_max":0,"o":"m 68 60 b 147 138 68 103 104 138 b 225 60 190 138 225 103 b 147 -18 225 17 190 -18 b 68 60 104 -18 68 17 m 390 60 b 468 138 390 103 425 138 b 547 60 511 138 547 103 b 468 -18 547 17 511 -18 b 390 60 425 -18 390 17 m 711 60 b 790 138 711 103 747 138 b 868 60 833 138 868 103 b 790 -18 868 17 833 -18 b 711 60 747 -18 711 17 "},"‰":{"ha":1554,"x_min":0,"x_max":0,"o":"m 839 972 l 953 972 l 211 0 l 99 0 m 269 565 b 56 776 146 565 56 658 b 268 990 56 894 146 990 b 488 776 396 990 488 896 b 269 565 488 660 394 565 m 271 651 b 393 776 346 651 393 707 b 269 904 393 847 343 904 b 149 776 197 904 149 847 b 271 651 149 707 199 651 m 563 193 b 776 407 563 311 653 407 b 994 193 903 407 994 311 b 778 -18 994 75 901 -18 b 563 193 654 -18 563 74 m 656 193 b 778 67 656 122 706 67 b 900 193 853 67 900 122 b 776 319 900 264 851 319 b 656 193 704 319 656 264 m 1065 193 b 1279 407 1065 311 1157 407 b 1499 193 1407 407 1499 311 b 1281 -18 1499 75 1406 -18 b 1065 193 1157 -18 1065 74 m 1158 193 b 1282 67 1158 122 1210 67 b 1404 193 1356 67 1404 122 b 1279 319 1404 264 1354 319 b 1158 193 1208 319 1158 264 "},"‹":{"ha":375,"x_min":0,"x_max":0,"o":"m 47 406 l 219 661 l 326 661 l 154 406 l 326 151 l 219 151 "},"›":{"ha":375,"x_min":0,"x_max":0,"o":"m 154 151 l 47 151 l 219 406 l 47 661 l 154 661 l 326 406 "},"⁄":{"ha":583,"x_min":0,"x_max":0,"o":"m -29 -57 l 511 1029 l 613 1029 l 72 -57 "},"€":{"ha":871,"x_min":0,"x_max":0,"o":"m 39 431 l 111 431 b 108 486 110 446 108 464 b 111 553 108 508 110 533 l 39 553 l 39 638 l 128 638 b 572 990 183 840 354 990 b 810 931 686 990 761 963 l 763 839 b 582 886 722 863 661 886 b 250 638 421 886 296 785 l 635 638 l 628 553 l 231 553 b 226 488 228 532 226 510 b 231 431 226 468 228 449 l 618 431 l 611 346 l 251 346 b 581 89 294 203 413 89 b 778 143 672 89 744 121 l 824 53 b 583 -18 790 25 697 -18 b 126 346 343 -18 178 146 l 39 346 "},"™":{"ha":1013,"x_min":0,"x_max":0,"o":"m 169 894 l 40 894 l 40 972 l 382 972 l 382 894 l 253 894 l 253 472 l 169 472 m 663 529 l 515 832 l 515 472 l 435 472 l 435 972 l 536 972 l 703 625 l 871 972 l 971 972 l 971 472 l 892 472 l 892 832 l 743 529 "},"−":{"ha":764,"x_min":0,"x_max":0,"o":"m 56 479 l 708 479 l 708 386 l 56 386 "},"\"":{"ha":414,"x_min":0,"x_max":0,"o":"m 67 972 l 164 972 l 156 697 l 75 697 m 250 972 l 347 972 l 339 697 l 257 697 "},"!":{"ha":358,"x_min":0,"x_max":0,"o":"m 122 972 l 238 972 l 228 244 l 132 244 m 101 60 b 181 138 101 103 138 138 b 258 60 224 138 258 103 b 181 -18 258 17 224 -18 b 101 60 138 -18 101 17 "},"$":{"ha":703,"x_min":0,"x_max":0,"o":"m 143 238 b 356 86 169 163 228 86 b 532 247 458 86 532 146 b 76 742 532 490 76 428 b 311 986 76 868 164 971 l 311 1064 l 396 1064 l 396 988 b 629 804 540 969 607 864 l 535 765 b 353 888 513 814 460 888 b 189 742 246 888 189 822 b 646 254 189 519 646 565 b 396 -15 646 114 551 1 l 396 -119 l 311 -119 l 311 -15 b 47 196 150 0 75 108 "},"&":{"ha":871,"x_min":0,"x_max":0,"o":"m 672 90 b 389 -18 610 28 511 -18 b 51 269 178 -18 51 110 b 222 532 51 392 125 476 b 117 747 168 588 117 651 b 382 990 117 872 210 990 b 653 746 551 990 653 890 b 435 468 653 625 568 543 l 665 246 b 711 464 704 317 711 371 l 817 464 b 744 168 817 351 804 263 l 846 67 l 767 -10 m 389 82 b 599 167 476 82 554 121 l 294 460 b 161 275 224 429 161 367 b 389 82 161 153 265 82 m 221 743 b 364 531 221 656 290 593 b 549 743 465 582 549 653 b 383 897 549 832 483 897 b 221 743 288 897 221 832 "},"¢":{"ha":719,"x_min":0,"x_max":0,"o":"m 378 92 b 47 468 183 110 47 267 b 378 846 47 669 188 828 l 378 972 l 464 972 l 464 844 b 669 749 572 833 644 775 l 633 654 b 419 747 604 685 529 747 b 161 469 268 747 161 625 b 422 189 161 313 274 189 b 636 285 536 189 608 256 l 671 192 b 464 92 646 165 574 104 l 464 0 l 378 0 "},"Ø":{"ha":1099,"x_min":0,"x_max":0,"o":"m 54 486 b 550 990 54 772 268 990 b 824 908 653 990 747 960 l 896 999 l 965 943 l 894 853 b 1046 486 989 763 1046 633 b 549 -18 1046 200 832 -18 b 272 63 444 -18 350 11 l 201 -28 l 132 28 l 203 118 b 54 486 110 208 54 338 m 171 486 b 275 208 171 375 210 278 l 756 822 b 550 885 699 861 626 885 b 171 486 333 885 171 714 m 929 486 b 824 764 929 596 889 693 l 340 149 b 550 88 400 108 471 88 b 929 486 764 88 929 256 "},"ø":{"ha":847,"x_min":0,"x_max":0,"o":"m 46 361 b 424 740 46 579 208 740 b 629 682 500 740 571 719 l 682 750 l 746 699 l 693 632 b 800 361 761 564 800 469 b 422 -18 800 144 639 -18 b 225 33 349 -18 281 0 l 172 -33 l 108 17 l 160 82 b 46 361 89 150 46 247 m 158 361 b 228 168 158 283 183 217 l 564 600 b 422 640 524 625 476 640 b 158 361 267 640 158 519 m 689 361 b 625 544 689 432 665 496 l 290 117 b 422 82 328 93 372 82 b 689 361 578 82 689 200 "},"§":{"ha":663,"x_min":0,"x_max":0,"o":"m 613 321 b 486 131 613 229 558 160 b 589 -65 544 85 589 25 b 326 -296 589 -200 488 -296 b 58 -122 154 -296 82 -187 l 149 -85 b 326 -194 171 -133 221 -194 b 476 -64 425 -194 476 -143 b 361 92 476 7 429 51 l 165 211 b 49 401 108 244 49 306 b 175 590 49 492 103 561 b 72 786 117 636 72 696 b 335 1018 72 921 174 1018 b 603 843 507 1018 579 908 l 513 806 b 335 917 490 856 440 917 b 185 785 236 917 185 865 b 300 629 185 714 232 669 l 454 539 b 613 321 539 488 613 419 m 508 318 b 404 454 508 379 465 419 l 274 526 b 153 403 204 524 153 469 b 215 294 153 351 182 314 l 388 194 b 508 318 457 197 508 251 "},"œ":{"ha":1424,"x_min":0,"x_max":0,"o":"m 46 361 b 424 740 46 579 208 740 b 742 560 565 740 681 669 b 1036 740 799 674 911 740 b 1381 371 1250 740 1381 588 b 1379 338 1381 364 1381 343 l 800 338 b 1060 79 801 174 910 79 b 1283 192 1181 79 1249 143 l 1357 139 b 1058 -18 1315 71 1222 -18 b 742 163 914 -18 799 50 b 422 -18 681 53 563 -18 b 46 361 206 -18 46 142 m 158 361 b 422 82 158 199 268 82 b 689 361 578 82 689 200 b 422 640 689 521 578 640 b 158 361 267 640 158 519 m 1267 419 b 1036 646 1260 569 1157 646 b 804 419 919 646 817 565 "},"æ":{"ha":1249,"x_min":0,"x_max":0,"o":"m 47 222 b 325 460 47 360 163 460 b 515 394 417 460 486 425 l 515 483 b 340 643 515 585 447 643 b 128 581 251 643 179 611 l 83 661 b 350 740 132 692 228 740 b 593 600 482 740 561 685 b 861 740 654 689 751 740 b 1204 371 1074 740 1204 588 l 1204 338 l 625 338 b 883 79 626 176 733 79 b 1108 192 1006 79 1074 143 l 1181 139 b 883 -18 1140 71 1047 -18 b 579 136 749 -18 638 36 b 322 -18 549 61 467 -18 b 47 222 164 -18 47 82 m 158 224 b 340 74 158 140 229 74 b 517 224 446 74 517 136 b 339 372 517 314 447 372 b 158 224 229 372 158 308 m 1092 419 b 861 646 1085 569 981 646 b 629 419 744 646 642 565 "},"":{"ha":319,"x_min":0,"x_max":0,"o":"m 88 -119 b 158 -46 88 -79 118 -46 b 236 -128 204 -46 236 -79 b 136 -329 236 -217 192 -282 l 89 -283 b 150 -190 110 -267 143 -229 b 88 -119 111 -185 88 -153 "},"á":{"ha":708,"x_min":0,"x_max":0,"o":"m 47 222 b 325 460 47 360 163 460 b 515 394 417 460 486 425 l 515 483 b 340 643 515 585 447 643 b 128 581 251 643 179 611 l 83 661 b 350 740 132 692 228 740 b 625 476 547 740 625 631 l 625 0 l 531 0 l 518 61 b 322 -18 481 18 419 -18 b 47 222 164 -18 47 82 m 158 224 b 340 74 158 140 229 74 b 519 224 446 74 519 136 b 339 372 519 314 447 372 b 158 224 229 372 158 308 m 386 1007 l 507 1007 l 383 810 l 288 810 "},"å":{"ha":708,"x_min":0,"x_max":0,"o":"m 47 222 b 325 460 47 360 163 460 b 515 394 417 460 486 425 l 515 483 b 340 643 515 585 447 643 b 128 581 251 643 179 611 l 83 661 b 350 740 132 692 228 740 b 625 476 547 740 625 631 l 625 0 l 531 0 l 518 61 b 322 -18 481 18 419 -18 b 47 222 164 -18 47 82 m 158 224 b 340 74 158 140 229 74 b 519 224 446 74 519 136 b 339 372 519 314 447 372 b 158 224 229 372 158 308 m 231 922 b 354 1043 231 993 283 1043 b 481 924 429 1043 481 993 b 356 801 481 853 428 801 b 231 922 283 801 231 853 m 299 922 b 356 864 299 888 321 864 b 413 924 392 864 413 888 b 354 981 413 957 392 981 b 299 922 321 981 299 957 "},"ã":{"ha":708,"x_min":0,"x_max":0,"o":"m 47 222 b 325 460 47 360 163 460 b 515 394 417 460 486 425 l 515 483 b 340 643 515 585 447 643 b 128 581 251 643 179 611 l 83 661 b 350 740 132 692 228 740 b 625 476 547 740 625 631 l 625 0 l 531 0 l 518 61 b 322 -18 481 18 419 -18 b 47 222 164 -18 47 82 m 158 224 b 340 74 158 140 229 74 b 519 224 446 74 519 136 b 339 372 519 314 447 372 b 158 224 229 372 158 308 m 440 835 b 265 897 368 835 319 897 b 213 836 235 897 214 874 l 133 836 b 264 982 133 925 188 982 b 438 921 335 982 388 921 b 490 982 468 921 489 944 l 568 982 b 440 835 568 893 517 835 "},"ä":{"ha":708,"x_min":0,"x_max":0,"o":"m 47 222 b 325 460 47 360 163 460 b 515 394 417 460 486 425 l 515 483 b 340 643 515 585 447 643 b 128 581 251 643 179 611 l 83 661 b 350 740 132 692 228 740 b 625 476 547 740 625 631 l 625 0 l 531 0 l 518 61 b 322 -18 481 18 419 -18 b 47 222 164 -18 47 82 m 158 224 b 340 74 158 140 229 74 b 519 224 446 74 519 136 b 339 372 519 314 447 372 b 158 224 229 372 158 308 m 178 907 b 247 976 178 944 208 976 b 317 907 288 976 317 944 b 247 838 317 868 288 838 b 178 907 208 838 178 868 m 406 907 b 475 976 406 944 435 976 b 544 907 514 976 544 944 b 475 838 544 868 514 838 b 406 907 435 838 406 868 "},"â":{"ha":708,"x_min":0,"x_max":0,"o":"m 47 222 b 325 460 47 360 163 460 b 515 394 417 460 486 425 l 515 483 b 340 643 515 585 447 643 b 128 581 251 643 179 611 l 83 661 b 350 740 132 692 228 740 b 625 476 547 740 625 631 l 625 0 l 531 0 l 518 61 b 322 -18 481 18 419 -18 b 47 222 164 -18 47 82 m 158 224 b 340 74 158 140 229 74 b 519 224 446 74 519 136 b 339 372 519 314 447 372 b 158 224 229 372 158 308 m 353 939 l 268 825 l 164 825 l 294 1006 l 411 1006 l 542 825 l 439 825 "},"à":{"ha":708,"x_min":0,"x_max":0,"o":"m 47 222 b 325 460 47 360 163 460 b 515 394 417 460 486 425 l 515 483 b 340 643 515 585 447 643 b 128 581 251 643 179 611 l 83 661 b 350 740 132 692 228 740 b 625 476 547 740 625 631 l 625 0 l 531 0 l 518 61 b 322 -18 481 18 419 -18 b 47 222 164 -18 47 82 m 158 224 b 340 74 158 140 229 74 b 519 224 446 74 519 136 b 339 372 519 314 447 372 b 158 224 229 372 158 308 m 422 810 l 325 810 l 203 1007 l 322 1007 "},"é":{"ha":785,"x_min":0,"x_max":0,"o":"m 47 358 b 397 740 47 589 206 740 b 740 371 610 740 740 588 b 739 338 740 367 740 351 l 160 338 b 419 79 161 176 269 79 b 644 192 542 79 610 143 l 717 139 b 418 -18 676 71 582 -18 b 47 358 199 -18 47 136 m 628 419 b 397 646 621 569 517 646 b 165 419 279 646 174 556 m 426 1007 l 547 1007 l 424 810 l 328 810 "},"è":{"ha":785,"x_min":0,"x_max":0,"o":"m 47 358 b 397 740 47 589 206 740 b 740 371 610 740 740 588 b 739 338 740 367 740 351 l 160 338 b 419 79 161 176 269 79 b 644 192 542 79 610 143 l 717 139 b 418 -18 676 71 582 -18 b 47 358 199 -18 47 136 m 628 419 b 397 646 621 569 517 646 b 165 419 279 646 174 556 m 467 810 l 369 810 l 247 1007 l 367 1007 "},"ê":{"ha":785,"x_min":0,"x_max":0,"o":"m 47 358 b 397 740 47 589 206 740 b 740 371 610 740 740 588 b 739 338 740 367 740 351 l 160 338 b 419 79 161 176 269 79 b 644 192 542 79 610 143 l 717 139 b 418 -18 676 71 582 -18 b 47 358 199 -18 47 136 m 628 419 b 397 646 621 569 517 646 b 165 419 279 646 174 556 m 399 939 l 314 825 l 210 825 l 340 1006 l 457 1006 l 588 825 l 485 825 "},"ë":{"ha":785,"x_min":0,"x_max":0,"o":"m 47 358 b 397 740 47 589 206 740 b 740 371 610 740 740 588 b 739 338 740 367 740 351 l 160 338 b 419 79 161 176 269 79 b 644 192 542 79 610 143 l 717 139 b 418 -18 676 71 582 -18 b 47 358 199 -18 47 136 m 628 419 b 397 646 621 569 517 646 b 165 419 279 646 174 556 m 218 907 b 288 976 218 944 249 976 b 357 907 328 976 357 944 b 288 838 357 868 328 838 b 218 907 249 838 218 868 m 446 907 b 515 976 446 944 475 976 b 585 907 554 976 585 944 b 515 838 585 868 554 838 b 446 907 475 838 446 868 "},"ñ":{"ha":761,"x_min":0,"x_max":0,"o":"m 418 740 b 672 451 586 740 672 615 l 672 0 l 563 0 l 563 456 b 392 640 563 571 490 640 b 204 439 281 640 204 558 l 204 0 l 94 0 l 94 722 l 203 722 l 203 618 b 418 740 238 683 318 740 m 472 835 b 297 897 400 835 351 897 b 244 836 267 897 246 874 l 165 836 b 296 982 165 925 219 982 b 469 921 367 982 419 921 b 522 982 500 921 521 944 l 600 982 b 472 835 600 893 549 835 "},"ó":{"ha":846,"x_min":0,"x_max":0,"o":"m 158 361 b 422 82 158 199 268 82 b 689 361 578 82 689 200 b 422 640 689 521 578 640 b 158 361 267 640 158 519 m 46 361 b 424 740 46 579 208 740 b 800 361 642 740 800 578 b 422 -18 800 144 639 -18 b 46 361 206 -18 46 142 m 453 1007 l 574 1007 l 450 810 l 354 810 "},"õ":{"ha":846,"x_min":0,"x_max":0,"o":"m 158 361 b 422 82 158 199 268 82 b 689 361 578 82 689 200 b 422 640 689 521 578 640 b 158 361 267 640 158 519 m 46 361 b 424 740 46 579 208 740 b 800 361 642 740 800 578 b 422 -18 800 144 639 -18 b 46 361 206 -18 46 142 m 517 835 b 342 897 444 835 396 897 b 289 836 311 897 290 874 l 210 836 b 340 982 210 925 264 982 b 514 921 411 982 464 921 b 567 982 544 921 565 944 l 644 982 b 517 835 644 893 593 835 "},"ö":{"ha":846,"x_min":0,"x_max":0,"o":"m 158 361 b 422 82 158 199 268 82 b 689 361 578 82 689 200 b 422 640 689 521 578 640 b 158 361 267 640 158 519 m 46 361 b 424 740 46 579 208 740 b 800 361 642 740 800 578 b 422 -18 800 144 639 -18 b 46 361 206 -18 46 142 m 244 907 b 314 976 244 944 275 976 b 383 907 354 976 383 944 b 314 838 383 868 354 838 b 244 907 275 838 244 868 m 472 907 b 542 976 472 944 501 976 b 611 907 581 976 611 944 b 542 838 611 868 581 838 b 472 907 501 838 472 868 "},"ô":{"ha":846,"x_min":0,"x_max":0,"o":"m 158 361 b 422 82 158 199 268 82 b 689 361 578 82 689 200 b 422 640 689 521 578 640 b 158 361 267 640 158 519 m 46 361 b 424 740 46 579 208 740 b 800 361 642 740 800 578 b 422 -18 800 144 639 -18 b 46 361 206 -18 46 142 m 426 939 l 342 825 l 238 825 l 368 1006 l 485 1006 l 615 825 l 513 825 "},"ò":{"ha":846,"x_min":0,"x_max":0,"o":"m 158 361 b 422 82 158 199 268 82 b 689 361 578 82 689 200 b 422 640 689 521 578 640 b 158 361 267 640 158 519 m 46 361 b 424 740 46 579 208 740 b 800 361 642 740 800 578 b 422 -18 800 144 639 -18 b 46 361 206 -18 46 142 m 475 810 l 378 810 l 256 1007 l 375 1007 "},"ú":{"ha":754,"x_min":0,"x_max":0,"o":"m 343 -18 b 88 271 175 -18 88 107 l 88 722 l 197 722 l 197 267 b 368 82 197 151 271 82 b 556 283 479 82 556 164 l 556 722 l 667 722 l 667 0 l 557 0 l 557 104 b 343 -18 524 39 442 -18 m 411 1007 l 532 1007 l 408 810 l 313 810 "},"ü":{"ha":754,"x_min":0,"x_max":0,"o":"m 343 -18 b 88 271 175 -18 88 107 l 88 722 l 197 722 l 197 267 b 368 82 197 151 271 82 b 556 283 479 82 556 164 l 556 722 l 667 722 l 667 0 l 557 0 l 557 104 b 343 -18 524 39 442 -18 m 201 907 b 271 976 201 944 232 976 b 340 907 311 976 340 944 b 271 838 340 868 311 838 b 201 907 232 838 201 868 m 429 907 b 499 976 429 944 458 976 b 568 907 538 976 568 944 b 499 838 568 868 538 838 b 429 907 458 838 429 868 "},"û":{"ha":754,"x_min":0,"x_max":0,"o":"m 343 -18 b 88 271 175 -18 88 107 l 88 722 l 197 722 l 197 267 b 368 82 197 151 271 82 b 556 283 479 82 556 164 l 556 722 l 667 722 l 667 0 l 557 0 l 557 104 b 343 -18 524 39 442 -18 m 379 939 l 294 825 l 190 825 l 321 1006 l 438 1006 l 568 825 l 465 825 "},"ù":{"ha":754,"x_min":0,"x_max":0,"o":"m 343 -18 b 88 271 175 -18 88 107 l 88 722 l 197 722 l 197 267 b 368 82 197 151 271 82 b 556 283 479 82 556 164 l 556 722 l 667 722 l 667 0 l 557 0 l 557 104 b 343 -18 524 39 442 -18 m 456 810 l 358 810 l 236 1007 l 356 1007 "},"Ä":{"ha":876,"x_min":0,"x_max":0,"o":"m 247 315 l 131 0 l 17 0 l 381 972 l 494 972 l 858 0 l 744 0 l 628 315 m 438 849 l 282 413 l 594 413 m 257 1128 b 326 1197 257 1165 288 1197 b 396 1128 367 1197 396 1165 b 326 1058 396 1089 367 1058 b 257 1128 288 1058 257 1089 m 485 1128 b 554 1197 485 1165 514 1197 b 624 1128 593 1197 624 1165 b 554 1058 624 1089 593 1058 b 485 1128 514 1058 485 1089 "},"Ö":{"ha":1099,"x_min":0,"x_max":0,"o":"m 53 486 b 549 990 53 772 267 990 b 1044 486 832 990 1044 769 b 547 -18 1044 200 831 -18 b 53 486 265 -18 53 197 m 169 486 b 549 88 169 256 333 88 b 928 486 764 88 928 256 b 549 885 928 714 764 885 b 169 486 333 885 169 714 m 368 1128 b 438 1197 368 1165 399 1197 b 507 1128 478 1197 507 1165 b 438 1058 507 1089 478 1058 b 368 1128 399 1058 368 1089 m 596 1128 b 665 1197 596 1165 625 1197 b 735 1128 704 1197 735 1165 b 665 1058 735 1089 704 1058 b 596 1128 625 1058 596 1089 "},"Ü":{"ha":933,"x_min":0,"x_max":0,"o":"m 467 -18 b 104 349 233 -18 104 128 l 104 972 l 217 972 l 217 350 b 467 86 217 189 303 86 b 718 351 631 86 718 189 l 718 972 l 829 972 l 829 350 b 467 -18 829 131 697 -18 m 286 1128 b 356 1197 286 1165 317 1197 b 425 1128 396 1197 425 1165 b 356 1058 425 1089 396 1058 b 286 1128 317 1058 286 1089 m 514 1128 b 583 1197 514 1165 543 1197 b 653 1128 622 1197 653 1165 b 583 1058 653 1089 622 1058 b 514 1128 543 1058 514 1089 "},"Ë":{"ha":658,"x_min":0,"x_max":0,"o":"m 110 972 l 571 972 l 571 869 l 222 869 l 222 546 l 526 546 l 526 444 l 222 444 l 222 101 l 586 101 l 586 0 l 110 0 m 174 1128 b 243 1197 174 1165 204 1197 b 313 1128 283 1197 313 1165 b 243 1058 313 1089 283 1058 b 174 1128 204 1058 174 1089 m 401 1128 b 471 1197 401 1165 431 1197 b 540 1128 510 1197 540 1165 b 471 1058 540 1089 510 1058 b 401 1128 431 1058 401 1089 "},"Ï":{"ha":332,"x_min":0,"x_max":0,"o":"m 110 972 l 222 972 l 222 0 l 110 0 m -11 1128 b 58 1197 -11 1165 19 1197 b 128 1128 99 1197 128 1165 b 58 1058 128 1089 99 1058 b -11 1128 19 1058 -11 1089 m 217 1128 b 286 1197 217 1165 246 1197 b 356 1128 325 1197 356 1165 b 286 1058 356 1089 325 1058 b 217 1128 246 1058 217 1089 "},"Å":{"ha":876,"x_min":0,"x_max":0,"o":"m 247 315 l 131 0 l 17 0 l 381 972 l 494 972 l 858 0 l 744 0 l 628 315 m 438 849 l 282 413 l 594 413 m 313 1149 b 436 1269 313 1219 365 1269 b 563 1150 511 1269 563 1219 b 438 1028 563 1079 510 1028 b 313 1149 365 1028 313 1079 m 381 1149 b 438 1090 381 1114 403 1090 b 494 1150 474 1090 494 1114 b 436 1207 494 1183 474 1207 b 381 1149 403 1207 381 1183 "},"É":{"ha":658,"x_min":0,"x_max":0,"o":"m 110 972 l 571 972 l 571 869 l 222 869 l 222 546 l 526 546 l 526 444 l 222 444 l 222 101 l 586 101 l 586 0 l 110 0 m 382 1231 l 503 1231 l 379 1033 l 283 1033 "},"Á":{"ha":876,"x_min":0,"x_max":0,"o":"m 247 315 l 131 0 l 17 0 l 381 972 l 494 972 l 858 0 l 744 0 l 628 315 m 438 849 l 282 413 l 594 413 m 482 1231 l 603 1231 l 479 1033 l 383 1033 "},"Ú":{"ha":933,"x_min":0,"x_max":0,"o":"m 467 -18 b 104 349 233 -18 104 128 l 104 972 l 217 972 l 217 350 b 467 86 217 189 303 86 b 718 351 631 86 718 189 l 718 972 l 829 972 l 829 350 b 467 -18 829 131 697 -18 m 500 1231 l 621 1231 l 497 1033 l 401 1033 "},"Í":{"ha":332,"x_min":0,"x_max":0,"o":"m 110 972 l 222 972 l 222 0 l 110 0 m 204 1231 l 325 1231 l 201 1033 l 106 1033 "},"Ó":{"ha":1099,"x_min":0,"x_max":0,"o":"m 53 486 b 549 990 53 772 267 990 b 1044 486 832 990 1044 769 b 547 -18 1044 200 831 -18 b 53 486 265 -18 53 197 m 169 486 b 549 88 169 256 333 88 b 928 486 764 88 928 256 b 549 885 928 714 764 885 b 169 486 333 885 169 714 m 578 1231 l 699 1231 l 575 1033 l 479 1033 "},"ÿ":{"ha":706,"x_min":0,"x_max":0,"o":"m 199 -249 l 303 7 l 8 722 l 128 722 l 357 142 l 579 722 l 696 722 l 308 -249 m 176 907 b 246 976 176 944 207 976 b 315 907 286 976 315 944 b 246 838 315 868 286 838 b 176 907 207 838 176 868 m 404 907 b 474 976 404 944 433 976 b 543 907 513 976 543 944 b 474 838 543 868 513 838 b 404 907 433 838 404 868 "},"Ÿ":{"ha":739,"x_min":0,"x_max":0,"o":"m 314 456 l 13 972 l 142 972 l 369 563 l 601 972 l 726 972 l 425 456 l 425 0 l 314 0 m 190 1150 b 260 1219 190 1188 221 1219 b 329 1150 300 1219 329 1188 b 260 1081 329 1111 300 1081 b 190 1150 221 1081 190 1111 m 418 1150 b 488 1219 418 1188 447 1219 b 557 1150 526 1219 557 1188 b 488 1081 557 1111 526 1081 b 418 1150 447 1081 418 1111 "},"À":{"ha":876,"x_min":0,"x_max":0,"o":"m 247 315 l 131 0 l 17 0 l 381 972 l 494 972 l 858 0 l 744 0 l 628 315 m 438 849 l 282 413 l 594 413 m 486 1033 l 389 1033 l 267 1231 l 386 1231 "},"Ò":{"ha":1099,"x_min":0,"x_max":0,"o":"m 53 486 b 549 990 53 772 267 990 b 1044 486 832 990 1044 769 b 547 -18 1044 200 831 -18 b 53 486 265 -18 53 197 m 169 486 b 549 88 169 256 333 88 b 928 486 764 88 928 256 b 549 885 928 714 764 885 b 169 486 333 885 169 714 m 606 1033 l 508 1033 l 386 1231 l 506 1231 "},"Ì":{"ha":332,"x_min":0,"x_max":0,"o":"m 110 972 l 222 972 l 222 0 l 110 0 m 228 1033 l 131 1033 l 8 1231 l 128 1231 "},"È":{"ha":658,"x_min":0,"x_max":0,"o":"m 110 972 l 571 972 l 571 869 l 222 869 l 222 546 l 526 546 l 526 444 l 222 444 l 222 101 l 586 101 l 586 0 l 110 0 m 421 1033 l 324 1033 l 201 1231 l 321 1231 "},"Ù":{"ha":933,"x_min":0,"x_max":0,"o":"m 467 -18 b 104 349 233 -18 104 128 l 104 972 l 217 972 l 217 350 b 467 86 217 189 303 86 b 718 351 631 86 718 189 l 718 972 l 829 972 l 829 350 b 467 -18 829 131 697 -18 m 538 1033 l 440 1033 l 318 1231 l 438 1231 "},"Ñ":{"ha":978,"x_min":0,"x_max":0,"o":"m 108 972 l 221 972 l 757 199 l 757 972 l 868 972 l 868 0 l 757 0 l 221 771 l 221 0 l 108 0 m 582 1053 b 407 1115 510 1053 461 1115 b 354 1054 376 1115 356 1092 l 275 1054 b 406 1200 275 1143 329 1200 b 579 1139 476 1200 529 1139 b 632 1200 610 1139 631 1163 l 710 1200 b 582 1053 710 1111 658 1053 "},"Ã":{"ha":876,"x_min":0,"x_max":0,"o":"m 247 315 l 131 0 l 17 0 l 381 972 l 494 972 l 858 0 l 744 0 l 628 315 m 438 849 l 282 413 l 594 413 m 528 1053 b 353 1115 456 1053 407 1115 b 300 1054 322 1115 301 1092 l 221 1054 b 351 1200 221 1143 275 1200 b 525 1139 422 1200 475 1139 b 578 1200 556 1139 576 1163 l 656 1200 b 528 1053 656 1111 604 1053 "},"Õ":{"ha":1099,"x_min":0,"x_max":0,"o":"m 53 486 b 549 990 53 772 267 990 b 1044 486 832 990 1044 769 b 547 -18 1044 200 831 -18 b 53 486 265 -18 53 197 m 169 486 b 549 88 169 256 333 88 b 928 486 764 88 928 256 b 549 885 928 714 764 885 b 169 486 333 885 169 714 m 642 1053 b 467 1115 569 1053 521 1115 b 414 1054 436 1115 415 1092 l 335 1054 b 465 1200 335 1143 389 1200 b 639 1139 536 1200 589 1139 b 692 1200 669 1139 690 1163 l 769 1200 b 642 1053 769 1111 718 1053 "},"Â":{"ha":876,"x_min":0,"x_max":0,"o":"m 247 315 l 131 0 l 17 0 l 381 972 l 494 972 l 858 0 l 744 0 l 628 315 m 438 849 l 282 413 l 594 413 m 438 1154 l 353 1040 l 249 1040 l 379 1221 l 496 1221 l 626 1040 l 524 1040 "},"Ê":{"ha":658,"x_min":0,"x_max":0,"o":"m 110 972 l 571 972 l 571 869 l 222 869 l 222 546 l 526 546 l 526 444 l 222 444 l 222 101 l 586 101 l 586 0 l 110 0 m 349 1154 l 264 1040 l 160 1040 l 290 1221 l 407 1221 l 538 1040 l 435 1040 "},"Î":{"ha":332,"x_min":0,"x_max":0,"o":"m 110 972 l 222 972 l 222 0 l 110 0 m 171 1154 l 86 1040 l -18 1040 l 113 1221 l 229 1221 l 360 1040 l 257 1040 "},"Ô":{"ha":1099,"x_min":0,"x_max":0,"o":"m 53 486 b 549 990 53 772 267 990 b 1044 486 832 990 1044 769 b 547 -18 1044 200 831 -18 b 53 486 265 -18 53 197 m 169 486 b 549 88 169 256 333 88 b 928 486 764 88 928 256 b 549 885 928 714 764 885 b 169 486 333 885 169 714 m 547 1154 l 463 1040 l 358 1040 l 489 1221 l 606 1221 l 736 1040 l 633 1040 "},"Û":{"ha":933,"x_min":0,"x_max":0,"o":"m 467 -18 b 104 349 233 -18 104 128 l 104 972 l 217 972 l 217 350 b 467 86 217 189 303 86 b 718 351 631 86 718 189 l 718 972 l 829 972 l 829 350 b 467 -18 829 131 697 -18 m 467 1154 l 382 1040 l 278 1040 l 408 1221 l 525 1221 l 656 1040 l 553 1040 "},"Ý":{"ha":739,"x_min":0,"x_max":0,"o":"m 314 456 l 13 972 l 142 972 l 369 563 l 601 972 l 726 972 l 425 456 l 425 0 l 314 0 m 410 1231 l 531 1231 l 407 1033 l 311 1033 "},"Ţ":{"ha":710,"x_min":0,"x_max":0,"o":"m 292 869 l 29 869 l 29 972 l 665 972 l 665 869 l 404 869 l 404 0 l 375 0 l 367 -65 b 478 -183 436 -72 478 -119 b 321 -312 478 -276 403 -312 b 263 -306 297 -312 267 -307 l 275 -235 b 317 -239 275 -235 297 -239 b 394 -182 356 -239 394 -228 b 315 -125 394 -144 363 -125 b 289 -128 301 -125 289 -128 l 306 0 l 292 0 "},"ţ":{"ha":410,"x_min":0,"x_max":0,"o":"m 103 874 l 213 874 l 213 722 l 371 722 l 371 629 l 213 629 l 213 257 b 346 90 213 122 251 90 b 376 92 360 90 376 92 l 376 -6 b 310 -10 376 -6 347 -10 b 275 -7 297 -10 275 -7 l 267 -65 b 378 -183 336 -72 378 -119 b 221 -312 378 -276 303 -312 b 163 -306 197 -312 167 -307 l 175 -235 b 217 -239 175 -235 197 -239 b 294 -182 256 -239 294 -228 b 215 -125 294 -144 263 -125 b 189 -128 201 -125 189 -128 l 208 11 b 103 247 136 47 103 129 l 103 629 l 18 629 l 18 722 l 103 722 "},"ý":{"ha":706,"x_min":0,"x_max":0,"o":"m 199 -249 l 303 7 l 8 722 l 128 722 l 357 142 l 579 722 l 696 722 l 308 -249 m 390 1007 l 511 1007 l 388 810 l 292 810 "},"Ā":{"ha":876,"x_min":0,"x_max":0,"o":"m 247 315 l 131 0 l 17 0 l 381 972 l 494 972 l 858 0 l 744 0 l 628 315 m 438 849 l 282 413 l 594 413 m 269 1150 l 606 1150 l 606 1063 l 269 1063 "},"ā":{"ha":708,"x_min":0,"x_max":0,"o":"m 47 222 b 325 460 47 360 163 460 b 515 394 417 460 486 425 l 515 483 b 340 643 515 585 447 643 b 128 581 251 643 179 611 l 83 661 b 350 740 132 692 228 740 b 625 476 547 740 625 631 l 625 0 l 531 0 l 518 61 b 322 -18 481 18 419 -18 b 47 222 164 -18 47 82 m 158 224 b 340 74 158 140 229 74 b 519 224 446 74 519 136 b 339 372 519 314 447 372 b 158 224 229 372 158 308 m 190 961 l 526 961 l 526 874 l 190 874 "},"Ă":{"ha":876,"x_min":0,"x_max":0,"o":"m 247 315 l 131 0 l 17 0 l 381 972 l 494 972 l 858 0 l 744 0 l 628 315 m 438 849 l 282 413 l 594 413 m 438 1038 b 261 1213 321 1038 261 1115 l 349 1213 b 438 1114 349 1158 372 1114 b 526 1213 501 1114 526 1158 l 614 1213 b 438 1038 614 1115 554 1038 "},"ă":{"ha":708,"x_min":0,"x_max":0,"o":"m 47 222 b 325 460 47 360 163 460 b 515 394 417 460 486 425 l 515 483 b 340 643 515 585 447 643 b 128 581 251 643 179 611 l 83 661 b 350 740 132 692 228 740 b 625 476 547 740 625 631 l 625 0 l 531 0 l 518 61 b 322 -18 481 18 419 -18 b 47 222 164 -18 47 82 m 158 224 b 340 74 158 140 229 74 b 519 224 446 74 519 136 b 339 372 519 314 447 372 b 158 224 229 372 158 308 m 353 815 b 176 990 236 815 176 893 l 264 990 b 353 892 264 936 288 892 b 442 990 417 892 442 936 l 529 990 b 353 815 529 893 469 815 "},"ș":{"ha":579,"x_min":0,"x_max":0,"o":"m 117 186 b 297 75 147 129 199 75 b 431 190 369 75 431 117 b 68 544 431 357 68 300 b 300 740 68 667 169 740 b 524 601 435 740 504 656 l 443 556 b 293 649 424 594 386 649 b 174 549 226 649 174 611 b 538 196 174 386 538 447 b 292 -18 538 68 432 -18 b 40 136 140 -18 72 68 m 225 -119 b 296 -46 225 -79 256 -46 b 374 -128 342 -46 374 -79 b 274 -329 374 -217 329 -282 l 226 -283 b 288 -190 247 -267 281 -229 b 225 -119 249 -185 225 -153 "},"Ș":{"ha":703,"x_min":0,"x_max":0,"o":"m 143 238 b 356 86 169 163 228 86 b 532 247 458 86 532 146 b 76 742 532 490 76 428 b 354 990 76 881 182 990 b 629 804 528 990 606 869 l 535 765 b 353 888 513 814 460 888 b 189 742 246 888 189 822 b 646 254 189 519 646 565 b 351 -18 646 101 533 -18 b 47 196 163 -18 78 103 m 281 -119 b 351 -46 281 -79 311 -46 b 429 -128 397 -46 429 -79 b 329 -329 429 -217 385 -282 l 282 -283 b 343 -190 303 -267 336 -229 b 281 -119 304 -185 281 -153 "},"Ć":{"ha":911,"x_min":0,"x_max":0,"o":"m 861 93 b 547 -18 824 60 711 -18 b 54 486 263 -18 54 199 b 544 990 54 772 269 990 b 846 889 690 990 794 931 l 810 789 b 547 885 772 819 676 885 b 171 486 332 885 171 713 b 550 88 171 260 325 88 b 826 192 697 88 793 164 m 550 1231 l 671 1231 l 547 1033 l 451 1033 "},"ž":{"ha":642,"x_min":0,"x_max":0,"o":"m 44 78 l 458 628 l 57 628 l 57 722 l 588 722 l 588 643 l 175 93 l 594 93 l 594 0 l 44 0 m 408 1006 l 511 1006 l 381 825 l 264 825 l 133 1006 l 238 1006 l 322 892 "},"Ž":{"ha":825,"x_min":0,"x_max":0,"o":"m 49 82 l 621 871 l 67 871 l 67 972 l 767 972 l 767 889 l 193 101 l 769 101 l 769 0 l 49 0 m 497 1221 l 600 1221 l 469 1040 l 353 1040 l 222 1221 l 326 1221 l 411 1107 "},"ć":{"ha":711,"x_min":0,"x_max":0,"o":"m 632 547 b 418 639 603 578 528 639 b 160 361 267 639 160 518 b 421 82 160 206 272 82 b 636 178 535 82 607 149 l 669 85 b 417 -18 640 54 551 -18 b 46 361 201 -18 46 147 b 415 740 46 575 206 740 b 669 642 547 740 632 678 m 440 1007 l 561 1007 l 438 810 l 342 810 "},"Ĉ":{"ha":911,"x_min":0,"x_max":0,"o":"m 861 93 b 547 -18 824 60 711 -18 b 54 486 263 -18 54 199 b 544 990 54 772 269 990 b 846 889 690 990 794 931 l 810 789 b 547 885 772 819 676 885 b 171 486 332 885 171 713 b 550 88 171 260 325 88 b 826 192 697 88 793 164 m 547 1154 l 463 1040 l 358 1040 l 489 1221 l 606 1221 l 736 1040 l 633 1040 "},"ĉ":{"ha":711,"x_min":0,"x_max":0,"o":"m 632 547 b 418 639 603 578 528 639 b 160 361 267 639 160 518 b 421 82 160 206 272 82 b 636 178 535 82 607 149 l 669 85 b 417 -18 640 54 551 -18 b 46 361 201 -18 46 147 b 415 740 46 575 206 740 b 669 642 547 740 632 678 m 417 939 l 332 825 l 228 825 l 358 1006 l 475 1006 l 606 825 l 503 825 "},"ď":{"ha":854,"x_min":0,"x_max":0,"o":"m 835 1004 l 949 1004 l 908 768 l 825 768 m 756 0 l 649 0 l 649 114 b 399 -18 631 88 556 -18 b 46 360 192 -18 46 139 b 390 740 46 582 185 740 b 644 606 540 740 624 643 l 644 1004 l 756 1004 m 649 358 b 403 640 649 538 538 640 b 158 358 261 640 158 524 b 404 81 158 190 265 81 b 649 358 556 81 649 207 "},"Ċ":{"ha":911,"x_min":0,"x_max":0,"o":"m 861 93 b 547 -18 824 60 711 -18 b 54 486 263 -18 54 199 b 544 990 54 772 269 990 b 846 889 690 990 794 931 l 810 789 b 547 885 772 819 676 885 b 171 486 332 885 171 713 b 550 88 171 260 325 88 b 826 192 697 88 793 164 m 472 1125 b 547 1200 472 1167 506 1200 b 624 1125 590 1200 624 1167 b 547 1049 624 1082 590 1049 b 472 1125 506 1049 472 1082 "},"ċ":{"ha":711,"x_min":0,"x_max":0,"o":"m 632 547 b 418 639 603 578 528 639 b 160 361 267 639 160 518 b 421 82 160 206 272 82 b 636 178 535 82 607 149 l 669 85 b 417 -18 640 54 551 -18 b 46 361 201 -18 46 147 b 415 740 46 575 206 740 b 669 642 547 740 632 678 m 342 908 b 417 983 342 950 375 983 b 493 908 460 983 493 950 b 417 832 493 865 460 832 b 342 908 375 832 342 865 "},"ż":{"ha":642,"x_min":0,"x_max":0,"o":"m 44 78 l 458 628 l 57 628 l 57 722 l 588 722 l 588 643 l 175 93 l 594 93 l 594 0 l 44 0 m 247 908 b 322 983 247 950 281 983 b 399 908 365 983 399 950 b 322 832 399 865 365 832 b 247 908 281 832 247 865 "},"Č":{"ha":911,"x_min":0,"x_max":0,"o":"m 861 93 b 547 -18 824 60 711 -18 b 54 486 263 -18 54 199 b 544 990 54 772 269 990 b 846 889 690 990 794 931 l 810 789 b 547 885 772 819 676 885 b 171 486 332 885 171 713 b 550 88 171 260 325 88 b 826 192 697 88 793 164 m 629 1221 l 732 1221 l 601 1040 l 485 1040 l 354 1221 l 458 1221 l 543 1107 "},"č":{"ha":711,"x_min":0,"x_max":0,"o":"m 632 547 b 418 639 603 578 528 639 b 160 361 267 639 160 518 b 421 82 160 206 272 82 b 636 178 535 82 607 149 l 669 85 b 417 -18 640 54 551 -18 b 46 361 201 -18 46 147 b 415 740 46 575 206 740 b 669 642 547 740 632 678 m 494 1006 l 597 1006 l 467 825 l 350 825 l 219 1006 l 324 1006 l 408 892 "},"Ď":{"ha":885,"x_min":0,"x_max":0,"o":"m 110 972 l 310 972 b 831 486 642 972 831 790 b 310 0 831 164 635 0 l 110 0 m 332 100 b 715 486 565 100 715 232 b 332 871 715 729 565 871 l 222 871 l 222 100 m 464 1221 l 567 1221 l 436 1040 l 319 1040 l 189 1221 l 293 1221 l 378 1107 "},"đ":{"ha":850,"x_min":0,"x_max":0,"o":"m 756 0 l 649 0 l 649 114 b 399 -18 631 88 556 -18 b 46 360 192 -18 46 139 b 390 740 46 582 185 740 b 644 606 540 740 624 643 l 644 813 l 465 813 l 465 894 l 644 894 l 644 1004 l 756 1004 l 756 894 l 847 894 l 847 813 l 756 813 m 649 358 b 403 640 649 538 538 640 b 158 358 261 640 158 524 b 404 81 158 190 265 81 b 649 358 556 81 649 207 "},"Ē":{"ha":658,"x_min":0,"x_max":0,"o":"m 110 972 l 571 972 l 571 869 l 222 869 l 222 546 l 526 546 l 526 444 l 222 444 l 222 101 l 586 101 l 586 0 l 110 0 m 183 1150 l 519 1150 l 519 1063 l 183 1063 "},"ē":{"ha":785,"x_min":0,"x_max":0,"o":"m 47 358 b 397 740 47 589 206 740 b 740 371 610 740 740 588 b 739 338 740 367 740 351 l 160 338 b 419 79 161 176 269 79 b 644 192 542 79 610 143 l 717 139 b 418 -18 676 71 582 -18 b 47 358 199 -18 47 136 m 628 419 b 397 646 621 569 517 646 b 165 419 279 646 174 556 m 235 961 l 571 961 l 571 874 l 235 874 "},"Ĕ":{"ha":658,"x_min":0,"x_max":0,"o":"m 110 972 l 571 972 l 571 869 l 222 869 l 222 546 l 526 546 l 526 444 l 222 444 l 222 101 l 586 101 l 586 0 l 110 0 m 344 1038 b 168 1213 228 1038 168 1115 l 256 1213 b 344 1114 256 1158 279 1114 b 433 1213 408 1114 433 1158 l 521 1213 b 344 1038 521 1115 461 1038 "},"ĕ":{"ha":785,"x_min":0,"x_max":0,"o":"m 47 358 b 397 740 47 589 206 740 b 740 371 610 740 740 588 b 739 338 740 367 740 351 l 160 338 b 419 79 161 176 269 79 b 644 192 542 79 610 143 l 717 139 b 418 -18 676 71 582 -18 b 47 358 199 -18 47 136 m 628 419 b 397 646 621 569 517 646 b 165 419 279 646 174 556 m 397 815 b 221 990 281 815 221 893 l 308 990 b 397 892 308 936 332 892 b 486 990 461 892 486 936 l 574 990 b 397 815 574 893 514 815 "},"Ė":{"ha":658,"x_min":0,"x_max":0,"o":"m 110 972 l 571 972 l 571 869 l 222 869 l 222 546 l 526 546 l 526 444 l 222 444 l 222 101 l 586 101 l 586 0 l 110 0 m 288 1125 b 363 1200 288 1167 321 1200 b 439 1125 406 1200 439 1167 b 363 1049 439 1082 406 1049 b 288 1125 321 1049 288 1082 "},"ė":{"ha":785,"x_min":0,"x_max":0,"o":"m 47 358 b 397 740 47 589 206 740 b 740 371 610 740 740 588 b 739 338 740 367 740 351 l 160 338 b 419 79 161 176 269 79 b 644 192 542 79 610 143 l 717 139 b 418 -18 676 71 582 -18 b 47 358 199 -18 47 136 m 628 419 b 397 646 621 569 517 646 b 165 419 279 646 174 556 m 326 908 b 401 983 326 950 360 983 b 478 908 444 983 478 950 b 401 832 478 865 444 832 b 326 908 360 832 326 865 "},"Ě":{"ha":658,"x_min":0,"x_max":0,"o":"m 110 972 l 571 972 l 571 869 l 222 869 l 222 546 l 526 546 l 526 444 l 222 444 l 222 101 l 586 101 l 586 0 l 110 0 m 447 1221 l 550 1221 l 419 1040 l 303 1040 l 172 1221 l 276 1221 l 361 1107 "},"ě":{"ha":785,"x_min":0,"x_max":0,"o":"m 47 358 b 397 740 47 589 206 740 b 740 371 610 740 740 588 b 739 338 740 367 740 351 l 160 338 b 419 79 161 176 269 79 b 644 192 542 79 610 143 l 717 139 b 418 -18 676 71 582 -18 b 47 358 199 -18 47 136 m 628 419 b 397 646 621 569 517 646 b 165 419 279 646 174 556 m 485 1006 l 588 1006 l 457 825 l 340 825 l 210 1006 l 314 1006 l 399 892 "},"Ĝ":{"ha":1022,"x_min":0,"x_max":0,"o":"m 546 990 b 904 849 739 990 854 900 l 832 774 b 549 885 788 817 701 885 b 172 485 325 885 172 713 b 547 86 172 250 331 86 b 832 188 710 86 801 157 l 832 392 l 615 392 l 615 490 l 940 490 l 940 139 b 543 -18 835 32 708 -18 b 54 485 267 -18 54 189 b 546 990 54 769 261 990 m 550 1154 l 465 1040 l 361 1040 l 492 1221 l 608 1221 l 739 1040 l 636 1040 "},"ĝ":{"ha":843,"x_min":0,"x_max":0,"o":"m 172 -108 b 390 -168 200 -125 286 -168 b 644 50 528 -168 644 -111 l 644 114 b 394 -18 628 88 553 -18 b 46 360 188 -18 46 139 b 393 740 46 582 189 740 b 649 606 543 740 625 644 l 649 722 l 754 722 l 754 100 b 392 -267 754 -174 600 -267 b 133 -194 297 -267 196 -233 m 649 360 b 401 640 649 535 539 640 b 157 360 261 640 157 525 b 404 82 157 192 265 82 b 649 360 553 82 649 204 m 419 939 l 335 825 l 231 825 l 361 1006 l 478 1006 l 608 825 l 506 825 "},"Ż":{"ha":825,"x_min":0,"x_max":0,"o":"m 49 82 l 621 871 l 67 871 l 67 972 l 767 972 l 767 889 l 193 101 l 769 101 l 769 0 l 49 0 m 339 1125 b 414 1200 339 1167 372 1200 b 490 1125 457 1200 490 1167 b 414 1049 490 1082 457 1049 b 339 1125 372 1049 339 1082 "},"ź":{"ha":642,"x_min":0,"x_max":0,"o":"m 44 78 l 458 628 l 57 628 l 57 722 l 588 722 l 588 643 l 175 93 l 594 93 l 594 0 l 44 0 m 342 1007 l 463 1007 l 339 810 l 243 810 "},"Ğ":{"ha":1022,"x_min":0,"x_max":0,"o":"m 546 990 b 904 849 739 990 854 900 l 832 774 b 549 885 788 817 701 885 b 172 485 325 885 172 713 b 547 86 172 250 331 86 b 832 188 710 86 801 157 l 832 392 l 615 392 l 615 490 l 940 490 l 940 139 b 543 -18 835 32 708 -18 b 54 485 267 -18 54 189 b 546 990 54 769 261 990 m 540 1038 b 364 1213 424 1038 364 1115 l 451 1213 b 540 1114 451 1158 475 1114 b 629 1213 604 1114 629 1158 l 717 1213 b 540 1038 717 1115 657 1038 "},"ğ":{"ha":843,"x_min":0,"x_max":0,"o":"m 172 -108 b 390 -168 200 -125 286 -168 b 644 50 528 -168 644 -111 l 644 114 b 394 -18 628 88 553 -18 b 46 360 188 -18 46 139 b 393 740 46 582 189 740 b 649 606 543 740 625 644 l 649 722 l 754 722 l 754 100 b 392 -267 754 -174 600 -267 b 133 -194 297 -267 196 -233 m 649 360 b 401 640 649 535 539 640 b 157 360 261 640 157 525 b 404 82 157 192 265 82 b 649 360 553 82 649 204 m 419 815 b 243 990 303 815 243 893 l 331 990 b 419 892 331 936 354 892 b 508 990 483 892 508 936 l 596 990 b 419 815 596 893 536 815 "},"Ź":{"ha":825,"x_min":0,"x_max":0,"o":"m 49 82 l 621 871 l 67 871 l 67 972 l 767 972 l 767 889 l 193 101 l 769 101 l 769 0 l 49 0 m 447 1231 l 568 1231 l 444 1033 l 349 1033 "},"ŷ":{"ha":706,"x_min":0,"x_max":0,"o":"m 199 -249 l 303 7 l 8 722 l 128 722 l 357 142 l 579 722 l 696 722 l 308 -249 m 358 939 l 274 825 l 169 825 l 300 1006 l 417 1006 l 547 825 l 444 825 "},"Ŷ":{"ha":739,"x_min":0,"x_max":0,"o":"m 314 456 l 13 972 l 142 972 l 369 563 l 601 972 l 726 972 l 425 456 l 425 0 l 314 0 m 371 1154 l 286 1040 l 182 1040 l 313 1221 l 429 1221 l 560 1040 l 457 1040 "},"ŵ":{"ha":1133,"x_min":0,"x_max":0,"o":"m 567 574 l 374 0 l 253 0 l 10 722 l 129 722 l 318 128 b 513 722 318 128 319 131 l 621 722 b 814 128 813 131 814 128 l 1004 722 l 1124 722 l 879 0 l 758 0 m 567 939 l 482 825 l 378 825 l 508 1006 l 625 1006 l 756 825 l 653 825 "},"Ġ":{"ha":1022,"x_min":0,"x_max":0,"o":"m 546 990 b 904 849 739 990 854 900 l 832 774 b 549 885 788 817 701 885 b 172 485 325 885 172 713 b 547 86 172 250 331 86 b 832 188 710 86 801 157 l 832 392 l 615 392 l 615 490 l 940 490 l 940 139 b 543 -18 835 32 708 -18 b 54 485 267 -18 54 189 b 546 990 54 769 261 990 m 474 1125 b 549 1200 474 1167 507 1200 b 625 1125 592 1200 625 1167 b 549 1049 625 1082 592 1049 b 474 1125 507 1049 474 1082 "},"ġ":{"ha":843,"x_min":0,"x_max":0,"o":"m 172 -108 b 390 -168 200 -125 286 -168 b 644 50 528 -168 644 -111 l 644 114 b 394 -18 628 88 553 -18 b 46 360 188 -18 46 139 b 393 740 46 582 189 740 b 649 606 543 740 625 644 l 649 722 l 754 722 l 754 100 b 392 -267 754 -174 600 -267 b 133 -194 297 -267 196 -233 m 649 360 b 401 640 649 535 539 640 b 157 360 261 640 157 525 b 404 82 157 192 265 82 b 649 360 553 82 649 204 m 344 908 b 419 983 344 950 378 983 b 496 908 463 983 496 950 b 419 832 496 865 463 832 b 344 908 378 832 344 865 "},"Ģ":{"ha":1022,"x_min":0,"x_max":0,"o":"m 546 990 b 904 849 739 990 854 900 l 832 774 b 549 885 788 817 701 885 b 172 485 325 885 172 713 b 547 86 172 250 331 86 b 832 188 710 86 801 157 l 832 392 l 615 392 l 615 490 l 940 490 l 940 139 b 543 -18 835 32 708 -18 b 54 485 267 -18 54 189 b 546 990 54 769 261 990 m 482 -119 b 553 -46 482 -79 513 -46 b 631 -128 599 -46 631 -79 b 531 -329 631 -217 586 -282 l 483 -283 b 544 -190 504 -267 538 -229 b 482 -119 506 -185 482 -153 "},"Ĥ":{"ha":961,"x_min":0,"x_max":0,"o":"m 110 972 l 222 972 l 222 546 l 739 546 l 739 972 l 851 972 l 851 0 l 739 0 l 739 443 l 222 443 l 222 0 l 110 0 m 486 1154 l 401 1040 l 297 1040 l 428 1221 l 544 1221 l 675 1040 l 572 1040 "},"ĥ":{"ha":761,"x_min":0,"x_max":0,"o":"m 418 740 b 674 451 586 740 674 615 l 674 0 l 564 0 l 564 456 b 393 640 564 571 490 640 b 204 439 282 640 204 558 l 204 0 l 94 0 l 94 1004 l 204 1004 l 204 618 b 418 740 239 683 319 740 m 385 1154 l 300 1040 l 196 1040 l 326 1221 l 443 1221 l 574 1040 l 471 1040 "},"Ħ":{"ha":961,"x_min":0,"x_max":0,"o":"m 110 715 l 25 715 l 25 803 l 110 803 l 110 972 l 222 972 l 222 803 l 739 803 l 739 972 l 851 972 l 851 803 l 936 803 l 936 715 l 851 715 l 851 0 l 739 0 l 739 443 l 222 443 l 222 0 l 110 0 m 739 546 l 739 715 l 222 715 l 222 546 "},"ħ":{"ha":761,"x_min":0,"x_max":0,"o":"m 418 740 b 674 451 586 740 674 615 l 674 0 l 564 0 l 564 456 b 393 640 564 571 490 640 b 204 439 282 640 204 558 l 204 0 l 94 0 l 94 815 l 7 815 l 7 897 l 94 897 l 94 1004 l 204 1004 l 204 897 l 383 897 l 383 815 l 204 815 l 204 618 b 418 740 239 683 319 740 "},"Ŵ":{"ha":1310,"x_min":0,"x_max":0,"o":"m 654 807 l 418 0 l 293 0 l 15 972 l 136 972 l 360 143 l 599 972 l 710 972 l 949 143 l 1174 972 l 1293 972 l 1017 0 l 890 0 m 656 1154 l 571 1040 l 467 1040 l 597 1221 l 714 1221 l 844 1040 l 742 1040 "},"ű":{"ha":754,"x_min":0,"x_max":0,"o":"m 343 -18 b 88 271 175 -18 88 107 l 88 722 l 197 722 l 197 267 b 368 82 197 151 271 82 b 556 283 479 82 556 164 l 556 722 l 667 722 l 667 0 l 557 0 l 557 104 b 343 -18 524 39 442 -18 m 504 1007 l 619 1007 l 496 810 l 406 810 m 329 1007 l 444 1007 l 321 810 l 231 810 "},"Ű":{"ha":938,"x_min":0,"x_max":0,"o":"m 467 -18 b 104 349 233 -18 104 128 l 104 972 l 217 972 l 217 350 b 467 86 217 189 303 86 b 718 351 631 86 718 189 l 718 972 l 829 972 l 829 350 b 467 -18 829 131 697 -18 m 592 1231 l 707 1231 l 583 1033 l 493 1033 m 417 1231 l 532 1231 l 408 1033 l 318 1033 "},"Ť":{"ha":710,"x_min":0,"x_max":0,"o":"m 292 869 l 29 869 l 29 972 l 665 972 l 665 869 l 404 869 l 404 0 l 292 0 m 436 1221 l 539 1221 l 408 1040 l 292 1040 l 161 1221 l 265 1221 l 350 1107 "},"ů":{"ha":754,"x_min":0,"x_max":0,"o":"m 343 -18 b 88 271 175 -18 88 107 l 88 722 l 197 722 l 197 267 b 368 82 197 151 271 82 b 556 283 479 82 556 164 l 556 722 l 667 722 l 667 0 l 557 0 l 557 104 b 343 -18 524 39 442 -18 m 257 922 b 381 1043 257 993 310 1043 b 507 924 456 1043 507 993 b 382 801 507 853 454 801 b 257 922 310 801 257 853 m 325 922 b 382 864 325 888 347 864 b 439 924 418 864 439 888 b 381 981 439 957 418 981 b 325 922 347 981 325 957 "},"ť":{"ha":410,"x_min":0,"x_max":0,"o":"m 294 1004 l 408 1004 l 368 774 l 285 774 m 103 874 l 213 874 l 213 722 l 371 722 l 371 629 l 213 629 l 213 257 b 346 90 213 122 251 90 b 376 92 360 90 376 92 l 376 -6 b 310 -10 376 -6 347 -10 b 103 247 165 -10 103 85 l 103 629 l 18 629 l 18 722 l 103 722 "},"Ů":{"ha":933,"x_min":0,"x_max":0,"o":"m 467 -18 b 104 349 233 -18 104 128 l 104 972 l 217 972 l 217 350 b 467 86 217 189 303 86 b 718 351 631 86 718 189 l 718 972 l 829 972 l 829 350 b 467 -18 829 131 697 -18 m 350 1149 b 474 1269 350 1219 403 1269 b 600 1150 549 1269 600 1219 b 475 1028 600 1079 547 1028 b 350 1149 403 1028 350 1079 m 418 1149 b 475 1090 418 1114 440 1090 b 532 1150 511 1090 532 1114 b 474 1207 532 1183 511 1207 b 418 1149 440 1207 418 1183 "},"ŭ":{"ha":754,"x_min":0,"x_max":0,"o":"m 343 -18 b 88 271 175 -18 88 107 l 88 722 l 197 722 l 197 267 b 368 82 197 151 271 82 b 556 283 479 82 556 164 l 556 722 l 667 722 l 667 0 l 557 0 l 557 104 b 343 -18 524 39 442 -18 m 381 815 b 204 990 264 815 204 893 l 292 990 b 381 892 292 936 315 892 b 469 990 444 892 469 936 l 557 990 b 381 815 557 893 497 815 "},"Ŭ":{"ha":933,"x_min":0,"x_max":0,"o":"m 467 -18 b 104 349 233 -18 104 128 l 104 972 l 217 972 l 217 350 b 467 86 217 189 303 86 b 718 351 631 86 718 189 l 718 972 l 829 972 l 829 350 b 467 -18 829 131 697 -18 m 474 1038 b 297 1213 357 1038 297 1115 l 385 1213 b 474 1114 385 1158 408 1114 b 563 1213 538 1114 563 1158 l 650 1213 b 474 1038 650 1115 590 1038 "},"ū":{"ha":754,"x_min":0,"x_max":0,"o":"m 343 -18 b 88 271 175 -18 88 107 l 88 722 l 197 722 l 197 267 b 368 82 197 151 271 82 b 556 283 479 82 556 164 l 556 722 l 667 722 l 667 0 l 557 0 l 557 104 b 343 -18 524 39 442 -18 m 215 961 l 551 961 l 551 874 l 215 874 "},"Ū":{"ha":938,"x_min":0,"x_max":0,"o":"m 467 -18 b 104 349 233 -18 104 128 l 104 972 l 217 972 l 217 350 b 467 86 217 189 303 86 b 718 351 631 86 718 189 l 718 972 l 829 972 l 829 350 b 467 -18 829 131 697 -18 m 311 1150 l 647 1150 l 647 1063 l 311 1063 "},"ũ":{"ha":754,"x_min":0,"x_max":0,"o":"m 343 -18 b 88 271 175 -18 88 107 l 88 722 l 197 722 l 197 267 b 368 82 197 151 271 82 b 556 283 479 82 556 164 l 556 722 l 667 722 l 667 0 l 557 0 l 557 104 b 343 -18 524 39 442 -18 m 471 835 b 296 897 399 835 350 897 b 243 836 265 897 244 874 l 164 836 b 294 982 164 925 218 982 b 468 921 365 982 418 921 b 521 982 499 921 519 944 l 599 982 b 471 835 599 893 547 835 "},"Ũ":{"ha":933,"x_min":0,"x_max":0,"o":"m 467 -18 b 104 349 233 -18 104 128 l 104 972 l 217 972 l 217 350 b 467 86 217 189 303 86 b 718 351 631 86 718 189 l 718 972 l 829 972 l 829 350 b 467 -18 829 131 697 -18 m 569 1053 b 394 1115 497 1053 449 1115 b 342 1054 364 1115 343 1092 l 263 1054 b 393 1200 263 1143 317 1200 b 567 1139 464 1200 517 1139 b 619 1200 597 1139 618 1163 l 697 1200 b 569 1053 697 1111 646 1053 "},"ŧ":{"ha":410,"x_min":0,"x_max":0,"o":"m 103 388 l 18 388 l 18 471 l 103 471 l 103 629 l 18 629 l 18 722 l 103 722 l 103 874 l 213 874 l 213 722 l 371 722 l 371 629 l 213 629 l 213 471 l 367 471 l 367 388 l 213 388 l 213 246 b 346 90 213 122 254 90 b 376 92 360 90 376 92 l 376 -6 b 310 -10 376 -6 347 -10 b 103 247 165 -10 103 85 "},"Ŧ":{"ha":710,"x_min":0,"x_max":0,"o":"m 117 565 l 292 565 l 292 869 l 29 869 l 29 972 l 665 972 l 665 869 l 404 869 l 404 565 l 597 565 l 597 475 l 404 475 l 404 0 l 292 0 l 292 475 l 117 475 "},"š":{"ha":579,"x_min":0,"x_max":0,"o":"m 117 186 b 297 75 147 129 199 75 b 431 190 369 75 431 117 b 68 544 431 357 68 300 b 300 740 68 667 169 740 b 524 601 435 740 504 656 l 443 556 b 293 649 424 594 386 649 b 174 549 226 649 174 611 b 538 196 174 386 538 447 b 292 -18 538 68 432 -18 b 40 136 140 -18 72 68 m 386 1006 l 489 1006 l 358 825 l 242 825 l 111 1006 l 215 1006 l 300 892 "},"Š":{"ha":703,"x_min":0,"x_max":0,"o":"m 143 238 b 356 86 169 163 228 86 b 532 247 458 86 532 146 b 76 742 532 490 76 428 b 354 990 76 881 182 990 b 629 804 528 990 606 869 l 535 765 b 353 888 513 814 460 888 b 189 742 246 888 189 822 b 646 254 189 519 646 565 b 351 -18 646 101 533 -18 b 47 196 163 -18 78 103 m 435 1221 l 538 1221 l 407 1040 l 290 1040 l 160 1221 l 264 1221 l 349 1107 "},"Ĩ":{"ha":332,"x_min":0,"x_max":0,"o":"m 110 972 l 222 972 l 222 0 l 110 0 m 257 1053 b 82 1115 185 1053 136 1115 b 29 1054 51 1115 31 1092 l -50 1054 b 81 1200 -50 1143 4 1200 b 254 1139 151 1200 204 1139 b 307 1200 285 1139 306 1163 l 385 1200 b 257 1053 385 1111 333 1053 "},"Ī":{"ha":332,"x_min":0,"x_max":0,"o":"m 110 972 l 222 972 l 222 0 l 110 0 m 1 1150 l 338 1150 l 338 1063 l 1 1063 "},"Ķ":{"ha":785,"x_min":0,"x_max":0,"o":"m 110 972 l 222 972 l 222 525 l 610 972 l 746 972 l 338 507 l 763 0 l 625 0 l 222 489 l 222 0 l 110 0 m 343 -119 b 414 -46 343 -79 374 -46 b 492 -128 460 -46 492 -79 b 392 -329 492 -217 447 -282 l 344 -283 b 406 -190 365 -267 399 -229 b 343 -119 367 -185 343 -153 "},"ĸ":{"ha":664,"x_min":0,"x_max":0,"o":"m 94 722 l 204 722 l 204 404 l 499 722 l 638 722 l 326 390 l 656 0 l 514 0 l 204 376 l 204 0 l 94 0 "},"ķ":{"ha":664,"x_min":0,"x_max":0,"o":"m 94 1004 l 204 1004 l 204 413 l 499 722 l 638 722 l 326 399 l 656 0 l 514 0 l 204 385 l 204 0 l 94 0 m 281 -119 b 351 -46 281 -79 311 -46 b 429 -128 397 -46 429 -79 b 329 -329 429 -217 385 -282 l 282 -283 b 343 -190 303 -267 336 -229 b 281 -119 304 -185 281 -153 "},"Ĭ":{"ha":332,"x_min":0,"x_max":0,"o":"m 110 972 l 222 972 l 222 0 l 110 0 m 168 1038 b -8 1213 51 1038 -8 1115 l 79 1213 b 168 1114 79 1158 103 1114 b 257 1213 232 1114 257 1158 l 344 1213 b 168 1038 344 1115 285 1038 "},"ȷ":{"ha":299,"x_min":0,"x_max":0,"o":"m 94 722 l 204 722 l 204 -24 b -21 -265 204 -207 103 -265 b -58 -262 -39 -265 -58 -262 l -58 -168 b -28 -169 -58 -168 -40 -169 b 94 -21 53 -169 94 -124 "},"ĵ":{"ha":299,"x_min":0,"x_max":0,"o":"m 94 722 l 204 722 l 204 -24 b -21 -265 204 -207 103 -265 b -58 -262 -39 -265 -58 -262 l -58 -168 b -28 -169 -58 -168 -40 -169 b 94 -21 53 -169 94 -124 m 150 939 l 65 825 l -39 825 l 92 1006 l 208 1006 l 339 825 l 236 825 "},"Ĵ":{"ha":479,"x_min":0,"x_max":0,"o":"m 43 106 b 135 93 43 106 89 93 b 257 235 211 93 257 136 l 257 972 l 369 972 l 369 219 b 147 -8 369 69 285 -8 b 31 6 89 -8 43 1 m 308 1154 l 224 1040 l 119 1040 l 250 1221 l 367 1221 l 497 1040 l 394 1040 "},"ĳ":{"ha":599,"x_min":0,"x_max":0,"o":"m 94 722 l 204 722 l 204 0 l 94 0 m 74 908 b 149 983 74 950 107 983 b 225 908 192 983 225 950 b 149 832 225 865 192 832 b 74 908 107 832 74 865 m 393 722 l 503 722 l 503 -24 b 278 -265 503 -207 401 -265 b 240 -262 260 -265 240 -262 l 240 -168 b 271 -169 240 -168 258 -169 b 393 -21 351 -169 393 -124 m 372 908 b 447 983 372 950 406 983 b 524 908 490 983 524 950 b 447 832 524 865 490 832 b 372 908 406 832 372 865 "},"Ĳ":{"ha":813,"x_min":0,"x_max":0,"o":"m 110 972 l 222 972 l 222 0 l 110 0 m 375 106 b 467 93 375 106 421 93 b 589 235 543 93 589 136 l 589 972 l 701 972 l 701 219 b 479 -8 701 69 617 -8 b 363 6 421 -8 375 1 "},"İ":{"ha":332,"x_min":0,"x_max":0,"o":"m 110 972 l 222 972 l 222 0 l 110 0 m 93 1125 b 168 1200 93 1167 126 1200 b 244 1125 211 1200 244 1167 b 168 1049 244 1082 211 1049 b 93 1125 126 1049 93 1082 "},"Ŗ":{"ha":760,"x_min":0,"x_max":0,"o":"m 110 972 l 357 972 b 660 703 556 972 660 872 b 490 446 660 588 603 482 l 732 0 l 607 0 l 388 422 l 222 422 l 222 0 l 110 0 m 357 521 b 542 701 471 521 542 574 b 350 872 542 804 488 872 l 222 872 l 222 521 m 313 -119 b 383 -46 313 -79 343 -46 b 461 -128 429 -46 461 -79 b 361 -329 461 -217 417 -282 l 314 -283 b 375 -190 335 -267 368 -229 b 313 -119 336 -185 313 -153 "},"ŗ":{"ha":446,"x_min":0,"x_max":0,"o":"m 418 631 b 204 346 253 631 204 500 l 204 0 l 94 0 l 94 722 l 203 722 l 203 601 b 418 740 228 674 308 740 m 107 -119 b 178 -46 107 -79 138 -46 b 256 -128 224 -46 256 -79 b 156 -329 256 -217 211 -282 l 108 -283 b 169 -190 129 -267 163 -229 b 107 -119 131 -185 107 -153 "},"ŝ":{"ha":579,"x_min":0,"x_max":0,"o":"m 117 186 b 297 75 147 129 199 75 b 431 190 369 75 431 117 b 68 544 431 357 68 300 b 300 740 68 667 169 740 b 524 601 435 740 504 656 l 443 556 b 293 649 424 594 386 649 b 174 549 226 649 174 611 b 538 196 174 386 538 447 b 292 -18 538 68 432 -18 b 40 136 140 -18 72 68 m 301 939 l 217 825 l 113 825 l 243 1006 l 360 1006 l 490 825 l 388 825 "},"Ŝ":{"ha":703,"x_min":0,"x_max":0,"o":"m 143 238 b 356 86 169 163 228 86 b 532 247 458 86 532 146 b 76 742 532 490 76 428 b 354 990 76 881 182 990 b 629 804 528 990 606 869 l 535 765 b 353 888 513 814 460 888 b 189 742 246 888 189 822 b 646 254 189 519 646 565 b 351 -18 646 101 533 -18 b 47 196 163 -18 78 103 m 353 1154 l 268 1040 l 164 1040 l 294 1221 l 411 1221 l 542 1040 l 439 1040 "},"ś":{"ha":579,"x_min":0,"x_max":0,"o":"m 117 186 b 297 75 147 129 199 75 b 431 190 369 75 431 117 b 68 544 431 357 68 300 b 300 740 68 667 169 740 b 524 601 435 740 504 656 l 443 556 b 293 649 424 594 386 649 b 174 549 226 649 174 611 b 538 196 174 386 538 447 b 292 -18 538 68 432 -18 b 40 136 140 -18 72 68 m 321 1007 l 442 1007 l 318 810 l 222 810 "},"Ś":{"ha":703,"x_min":0,"x_max":0,"o":"m 143 238 b 356 86 169 163 228 86 b 532 247 458 86 532 146 b 76 742 532 490 76 428 b 354 990 76 881 182 990 b 629 804 528 990 606 869 l 535 765 b 353 888 513 814 460 888 b 189 742 246 888 189 822 b 646 254 189 519 646 565 b 351 -18 646 101 533 -18 b 47 196 163 -18 78 103 m 386 1231 l 507 1231 l 383 1033 l 288 1033 "},"ř":{"ha":446,"x_min":0,"x_max":0,"o":"m 418 631 b 204 346 253 631 204 500 l 204 0 l 94 0 l 94 722 l 203 722 l 203 601 b 418 740 228 674 308 740 m 328 1006 l 431 1006 l 300 825 l 183 825 l 53 1006 l 157 1006 l 242 892 "},"Ř":{"ha":760,"x_min":0,"x_max":0,"o":"m 110 972 l 357 972 b 660 703 556 972 660 872 b 490 446 660 588 603 482 l 732 0 l 607 0 l 388 422 l 222 422 l 222 0 l 110 0 m 357 521 b 542 701 471 521 542 574 b 350 872 542 804 488 872 l 222 872 l 222 521 m 440 1221 l 543 1221 l 413 1040 l 296 1040 l 165 1221 l 269 1221 l 354 1107 "},"ŕ":{"ha":446,"x_min":0,"x_max":0,"o":"m 418 631 b 204 346 253 631 204 500 l 204 0 l 94 0 l 94 722 l 203 722 l 203 601 b 418 740 228 674 308 740 m 290 1007 l 411 1007 l 288 810 l 192 810 "},"Ŕ":{"ha":760,"x_min":0,"x_max":0,"o":"m 110 972 l 357 972 b 660 703 556 972 660 872 b 490 446 660 588 603 482 l 732 0 l 607 0 l 388 422 l 222 422 l 222 0 l 110 0 m 357 521 b 542 701 471 521 542 574 b 350 872 542 804 488 872 l 222 872 l 222 521 m 396 1231 l 517 1231 l 393 1033 l 297 1033 "},"ő":{"ha":846,"x_min":0,"x_max":0,"o":"m 158 361 b 422 82 158 199 268 82 b 689 361 578 82 689 200 b 422 640 689 521 578 640 b 158 361 267 640 158 519 m 46 361 b 424 740 46 579 208 740 b 800 361 642 740 800 578 b 422 -18 800 144 639 -18 b 46 361 206 -18 46 142 m 549 1007 l 664 1007 l 540 810 l 450 810 m 374 1007 l 489 1007 l 365 810 l 275 810 "},"Ő":{"ha":1099,"x_min":0,"x_max":0,"o":"m 53 486 b 549 990 53 772 267 990 b 1044 486 832 990 1044 769 b 547 -18 1044 200 831 -18 b 53 486 265 -18 53 197 m 169 486 b 549 88 169 256 333 88 b 928 486 764 88 928 256 b 549 885 928 714 764 885 b 169 486 333 885 169 714 m 658 1231 l 774 1231 l 650 1033 l 560 1033 m 483 1231 l 599 1231 l 475 1033 l 385 1033 "},"Ŏ":{"ha":1099,"x_min":0,"x_max":0,"o":"m 53 486 b 549 990 53 772 267 990 b 1044 486 832 990 1044 769 b 547 -18 1044 200 831 -18 b 53 486 265 -18 53 197 m 169 486 b 549 88 169 256 333 88 b 928 486 764 88 928 256 b 549 885 928 714 764 885 b 169 486 333 885 169 714 m 553 1038 b 376 1213 436 1038 376 1115 l 464 1213 b 553 1114 464 1158 488 1114 b 642 1213 617 1114 642 1158 l 729 1213 b 553 1038 729 1115 669 1038 "},"ō":{"ha":846,"x_min":0,"x_max":0,"o":"m 158 361 b 422 82 158 199 268 82 b 689 361 578 82 689 200 b 422 640 689 521 578 640 b 158 361 267 640 158 519 m 46 361 b 424 740 46 579 208 740 b 800 361 642 740 800 578 b 422 -18 800 144 639 -18 b 46 361 206 -18 46 142 m 258 961 l 594 961 l 594 874 l 258 874 "},"Ĺ":{"ha":624,"x_min":0,"x_max":0,"o":"m 110 972 l 222 972 l 222 101 l 586 101 l 586 0 l 110 0 m 217 1231 l 338 1231 l 214 1033 l 118 1033 "},"ĺ":{"ha":299,"x_min":0,"x_max":0,"o":"m 94 1004 l 204 1004 l 204 0 l 94 0 m 193 1239 l 314 1239 l 190 1042 l 94 1042 "},"ļ":{"ha":299,"x_min":0,"x_max":0,"o":"m 94 1004 l 204 1004 l 204 0 l 94 0 m 79 -119 b 150 -46 79 -79 110 -46 b 228 -128 196 -46 228 -79 b 128 -329 228 -217 183 -282 l 81 -283 b 142 -190 101 -267 135 -229 b 79 -119 103 -185 79 -153 "},"Ļ":{"ha":624,"x_min":0,"x_max":0,"o":"m 110 972 l 222 972 l 222 101 l 586 101 l 586 0 l 110 0 m 286 -119 b 357 -46 286 -79 317 -46 b 435 -128 403 -46 435 -79 b 335 -329 435 -217 390 -282 l 288 -283 b 349 -190 308 -267 342 -229 b 286 -119 310 -185 286 -153 "},"Ľ":{"ha":632,"x_min":0,"x_max":0,"o":"m 401 972 l 515 972 l 475 736 l 392 736 m 110 972 l 222 972 l 222 101 l 586 101 l 586 0 l 110 0 "},"ľ":{"ha":304,"x_min":0,"x_max":0,"o":"m 265 1004 l 379 1004 l 339 768 l 256 768 m 94 1004 l 204 1004 l 204 0 l 94 0 "},"ŀ":{"ha":454,"x_min":0,"x_max":0,"o":"m 94 1004 l 204 1004 l 204 0 l 94 0 m 265 454 b 343 532 265 497 300 532 b 422 454 386 532 422 497 b 343 375 422 411 386 375 b 265 454 300 375 265 411 "},"Ŀ":{"ha":624,"x_min":0,"x_max":0,"o":"m 110 972 l 222 972 l 222 101 l 586 101 l 586 0 l 110 0 m 364 511 b 442 589 364 554 399 589 b 521 511 485 589 521 554 b 442 432 521 468 485 432 b 364 511 399 432 364 468 "},"Ł":{"ha":624,"x_min":0,"x_max":0,"o":"m 28 442 l 110 490 l 110 972 l 222 972 l 222 556 l 394 661 l 394 549 l 222 446 l 222 101 l 586 101 l 586 0 l 110 0 l 110 381 l 28 333 "},"ł":{"ha":350,"x_min":0,"x_max":0,"o":"m 25 496 l 115 554 l 115 1004 l 225 1004 l 225 622 l 321 686 l 321 572 l 225 510 l 225 0 l 115 0 l 115 443 l 25 385 "},"Ō":{"ha":1099,"x_min":0,"x_max":0,"o":"m 53 486 b 549 990 53 772 267 990 b 1044 486 832 990 1044 769 b 547 -18 1044 200 831 -18 b 53 486 265 -18 53 197 m 169 486 b 549 88 169 256 333 88 b 928 486 764 88 928 256 b 549 885 928 714 764 885 b 169 486 333 885 169 714 m 381 1150 l 717 1150 l 717 1063 l 381 1063 "},"Ń":{"ha":978,"x_min":0,"x_max":0,"o":"m 108 972 l 221 972 l 757 199 l 757 972 l 868 972 l 868 0 l 757 0 l 221 771 l 221 0 l 108 0 m 538 1231 l 658 1231 l 535 1033 l 439 1033 "},"ń":{"ha":761,"x_min":0,"x_max":0,"o":"m 418 740 b 672 451 586 740 672 615 l 672 0 l 563 0 l 563 456 b 392 640 563 571 490 640 b 204 439 281 640 204 558 l 204 0 l 94 0 l 94 722 l 203 722 l 203 618 b 418 740 238 683 318 740 m 418 1007 l 539 1007 l 415 810 l 319 810 "},"Ņ":{"ha":978,"x_min":0,"x_max":0,"o":"m 108 972 l 221 972 l 757 199 l 757 972 l 868 972 l 868 0 l 757 0 l 221 771 l 221 0 l 108 0 m 414 -119 b 485 -46 414 -79 444 -46 b 563 -128 531 -46 563 -79 b 463 -329 563 -217 518 -282 l 415 -283 b 476 -190 436 -267 469 -229 b 414 -119 438 -185 414 -153 "},"ņ":{"ha":761,"x_min":0,"x_max":0,"o":"m 418 740 b 672 451 586 740 672 615 l 672 0 l 563 0 l 563 456 b 392 640 563 571 490 640 b 204 439 281 640 204 558 l 204 0 l 94 0 l 94 722 l 203 722 l 203 618 b 418 740 238 683 318 740 m 307 -119 b 378 -46 307 -79 338 -46 b 456 -128 424 -46 456 -79 b 356 -329 456 -217 411 -282 l 308 -283 b 369 -190 329 -267 363 -229 b 307 -119 331 -185 307 -153 "},"Ň":{"ha":978,"x_min":0,"x_max":0,"o":"m 108 972 l 221 972 l 757 199 l 757 972 l 868 972 l 868 0 l 757 0 l 221 771 l 221 0 l 108 0 m 576 1221 l 679 1221 l 549 1040 l 432 1040 l 301 1221 l 406 1221 l 490 1107 "},"ň":{"ha":761,"x_min":0,"x_max":0,"o":"m 418 740 b 672 451 586 740 672 615 l 672 0 l 563 0 l 563 456 b 392 640 563 571 490 640 b 204 439 281 640 204 558 l 204 0 l 94 0 l 94 722 l 203 722 l 203 618 b 418 740 238 683 318 740 m 482 1006 l 585 1006 l 454 825 l 338 825 l 207 1006 l 311 1006 l 396 892 "},"ŉ":{"ha":796,"x_min":0,"x_max":0,"o":"m 453 740 b 707 451 621 740 707 615 l 707 0 l 597 0 l 597 456 b 426 640 597 571 525 640 b 239 439 315 640 239 558 l 239 0 l 129 0 l 129 722 l 238 722 l 238 618 b 453 740 272 683 353 740 m -19 921 b 51 994 -19 961 11 994 b 129 913 97 994 129 961 b 29 711 129 824 85 758 l -18 757 b 43 850 3 774 36 811 b -19 921 4 856 -19 888 "},"ģ":{"ha":843,"x_min":0,"x_max":0,"o":"m 172 -108 b 390 -168 200 -125 286 -168 b 644 50 528 -168 644 -111 l 644 114 b 394 -18 628 88 553 -18 b 46 360 188 -18 46 139 b 393 740 46 582 189 740 b 649 606 543 740 625 644 l 649 722 l 754 722 l 754 100 b 392 -267 754 -174 600 -267 b 133 -194 297 -267 196 -233 m 649 360 b 401 640 649 535 539 640 b 157 360 261 640 157 525 b 404 82 157 192 265 82 b 649 360 553 82 649 204 m 485 871 b 414 797 485 831 454 797 b 336 879 368 797 336 831 b 436 1081 336 968 381 1033 l 483 1035 b 422 942 463 1018 429 981 b 485 871 461 936 485 904 "},"í":{"ha":299,"x_min":0,"x_max":0,"o":"m 185 1007 l 306 1007 l 182 810 l 86 810 m 94 722 l 204 722 l 204 0 l 94 0 "},"ï":{"ha":299,"x_min":0,"x_max":0,"o":"m -32 907 b 38 976 -32 944 -1 976 b 107 907 78 976 107 944 b 38 838 107 868 78 838 b -32 907 -1 838 -32 868 m 196 907 b 265 976 196 944 225 976 b 335 907 304 976 335 944 b 265 838 335 868 304 838 b 196 907 225 838 196 868 m 94 722 l 204 722 l 204 0 l 94 0 "},"î":{"ha":299,"x_min":0,"x_max":0,"o":"m 94 722 l 204 722 l 204 0 l 94 0 m 153 939 l 68 825 l -36 825 l 94 1006 l 211 1006 l 342 825 l 239 825 "},"ì":{"ha":299,"x_min":0,"x_max":0,"o":"m 211 810 l 114 810 l -8 1007 l 111 1007 m 94 722 l 204 722 l 204 0 l 94 0 "},"ĩ":{"ha":299,"x_min":0,"x_max":0,"o":"m 240 835 b 65 897 168 835 119 897 b 13 836 35 897 14 874 l -67 836 b 64 982 -67 925 -12 982 b 238 921 135 982 188 921 b 290 982 268 921 289 944 l 368 982 b 240 835 368 893 317 835 m 94 722 l 204 722 l 204 0 l 94 0 "},"ĭ":{"ha":299,"x_min":0,"x_max":0,"o":"m 150 815 b -26 990 33 815 -26 893 l 61 990 b 150 892 61 936 85 892 b 239 990 214 892 239 936 l 326 990 b 150 815 326 893 267 815 m 94 722 l 204 722 l 204 0 l 94 0 "},"ī":{"ha":299,"x_min":0,"x_max":0,"o":"m -18 961 l 318 961 l 318 874 l -18 874 m 94 722 l 204 722 l 204 0 l 94 0 "},"Ŋ":{"ha":978,"x_min":0,"x_max":0,"o":"m 543 -150 b 635 -162 543 -150 589 -162 b 757 -21 711 -162 757 -119 l 757 0 l 221 792 l 221 0 l 108 0 l 108 972 l 221 972 l 757 178 l 757 972 l 868 972 l 868 -36 b 647 -264 868 -186 785 -264 b 531 -250 589 -264 543 -254 "},"ŋ":{"ha":761,"x_min":0,"x_max":0,"o":"m 563 456 b 392 640 563 571 490 640 b 204 439 281 640 204 558 l 204 0 l 94 0 l 94 722 l 203 722 l 203 618 b 418 740 238 683 318 740 b 672 451 586 740 672 615 l 672 -24 b 447 -265 672 -207 572 -265 b 410 -262 431 -265 410 -262 l 410 -168 b 442 -169 410 -168 428 -169 b 563 -21 521 -169 563 -124 "},"ç":{"ha":711,"x_min":0,"x_max":0,"o":"m 632 547 b 418 639 603 578 528 639 b 160 361 267 639 160 518 b 421 82 160 206 272 82 b 636 178 535 82 607 149 l 669 85 b 415 -18 640 54 551 -18 l 408 -65 b 519 -183 478 -72 519 -119 b 363 -312 519 -276 444 -312 b 304 -306 339 -312 308 -307 l 317 -235 b 358 -239 317 -235 339 -239 b 436 -182 397 -239 436 -228 b 357 -125 436 -144 404 -125 b 331 -128 343 -125 331 -128 l 346 -11 b 46 361 168 19 46 171 b 415 740 46 575 206 740 b 669 642 547 740 632 678 "},"Ç":{"ha":911,"x_min":0,"x_max":0,"o":"m 861 93 b 547 -18 824 60 711 -18 b 525 -17 538 -18 525 -17 l 519 -65 b 631 -183 589 -72 631 -119 b 474 -312 631 -276 556 -312 b 415 -306 450 -312 419 -307 l 428 -235 b 469 -239 428 -235 450 -239 b 547 -182 508 -239 547 -228 b 468 -125 547 -144 515 -125 b 442 -128 454 -125 442 -128 l 457 -10 b 54 486 219 29 54 229 b 544 990 54 772 269 990 b 846 889 690 990 794 931 l 810 789 b 547 885 772 819 676 885 b 171 486 332 885 171 713 b 550 88 171 260 325 88 b 826 192 697 88 793 164 "},"Ę":{"ha":658,"x_min":0,"x_max":0,"o":"m 110 972 l 571 972 l 571 869 l 222 869 l 222 546 l 526 546 l 526 444 l 222 444 l 222 101 l 586 101 l 586 0 b 489 -115 561 -10 489 -53 b 574 -182 489 -162 531 -182 l 574 -268 b 540 -271 574 -268 563 -271 b 389 -140 467 -271 389 -229 b 493 0 389 -71 447 -18 l 110 0 "},"ę":{"ha":785,"x_min":0,"x_max":0,"o":"m 340 -140 b 411 -18 340 -87 374 -43 b 47 358 194 -14 47 138 b 397 740 47 589 206 740 b 740 371 610 740 740 588 l 740 338 l 160 338 b 419 79 161 176 269 79 b 644 192 542 79 610 143 l 717 139 b 538 0 688 89 629 29 b 440 -115 513 -10 440 -53 b 525 -182 440 -162 482 -182 l 525 -268 b 492 -271 525 -268 514 -271 b 340 -140 418 -271 340 -229 m 628 419 b 397 646 621 569 517 646 b 165 419 279 646 176 565 "},"Ą":{"ha":876,"x_min":0,"x_max":0,"o":"m 661 -140 b 768 0 661 -71 722 -18 l 744 0 l 628 315 l 247 315 l 131 0 l 17 0 l 381 972 l 494 972 l 858 0 b 761 -115 833 -10 761 -53 b 846 -182 761 -162 803 -182 l 846 -268 b 813 -271 846 -268 835 -271 b 661 -140 739 -271 661 -229 m 438 849 l 282 413 l 594 413 "},"ą":{"ha":708,"x_min":0,"x_max":0,"o":"m 428 -140 b 532 0 428 -71 488 -18 l 518 61 b 322 -18 481 18 419 -18 b 47 222 164 -18 47 82 b 325 460 47 360 163 460 b 515 394 417 460 486 425 l 515 483 b 340 643 515 585 447 643 b 128 581 251 643 179 611 l 83 661 b 350 740 132 692 228 740 b 625 476 547 740 625 631 l 625 0 b 528 -115 600 -10 528 -53 b 613 -182 528 -162 569 -182 l 613 -268 b 579 -271 613 -268 601 -271 b 428 -140 506 -271 428 -229 m 158 224 b 340 74 158 140 229 74 b 519 224 446 74 519 136 b 339 372 519 314 447 372 b 158 224 229 372 158 308 "},"ų":{"ha":754,"x_min":0,"x_max":0,"o":"m 469 -140 b 574 0 469 -71 528 -18 l 557 0 l 557 104 b 343 -18 524 39 442 -18 b 88 271 175 -18 88 107 l 88 722 l 197 722 l 197 267 b 368 82 197 151 271 82 b 556 283 479 82 556 164 l 556 722 l 667 722 l 667 0 b 569 -115 642 -10 569 -53 b 654 -182 569 -162 611 -182 l 654 -268 b 621 -271 654 -268 643 -271 b 469 -140 547 -271 469 -229 "},"Ų":{"ha":933,"x_min":0,"x_max":0,"o":"m 468 -18 b 104 349 233 -18 104 128 l 104 972 l 217 972 l 217 350 b 467 86 217 189 303 86 b 718 351 631 86 718 189 l 718 972 l 829 972 l 829 350 b 590 -1 829 174 743 43 b 497 -115 563 -12 497 -56 b 582 -182 497 -162 539 -182 l 582 -268 b 549 -271 582 -268 571 -271 b 397 -140 475 -271 397 -229 b 468 -18 397 -87 431 -43 "},"į":{"ha":299,"x_min":0,"x_max":0,"o":"m 94 722 l 204 722 l 204 0 b 107 -115 179 -10 107 -53 b 192 -182 107 -162 149 -182 l 192 -268 b 158 -271 192 -268 181 -271 b 7 -140 85 -271 7 -229 b 111 0 7 -71 65 -18 l 94 0 m 74 908 b 149 983 74 950 107 983 b 225 908 192 983 225 950 b 149 832 225 865 192 832 b 74 908 107 832 74 865 "},"Į":{"ha":332,"x_min":0,"x_max":0,"o":"m 110 972 l 222 972 l 222 0 b 125 -115 197 -10 125 -53 b 210 -182 125 -162 167 -182 l 210 -268 b 176 -271 210 -268 199 -271 b 25 -140 103 -271 25 -229 b 129 0 25 -71 83 -18 l 110 0 "},"Ş":{"ha":703,"x_min":0,"x_max":0,"o":"m 143 238 b 356 86 169 163 228 86 b 532 247 458 86 532 146 b 76 742 532 490 76 428 b 354 990 76 881 182 990 b 629 804 528 990 606 869 l 535 765 b 353 888 513 814 460 888 b 189 742 246 888 189 822 b 646 254 189 519 646 565 b 382 -17 646 110 546 -4 l 375 -65 b 486 -183 444 -72 486 -119 b 329 -312 486 -276 411 -312 b 271 -306 306 -312 275 -307 l 283 -235 b 325 -239 283 -235 306 -239 b 403 -182 364 -239 403 -228 b 324 -125 403 -144 371 -125 b 297 -128 310 -125 297 -128 l 313 -15 b 47 196 150 0 75 110 "},"ş":{"ha":579,"x_min":0,"x_max":0,"o":"m 117 186 b 297 75 147 129 199 75 b 431 190 369 75 431 117 b 68 544 431 357 68 300 b 300 740 68 667 169 740 b 524 601 435 740 504 656 l 443 556 b 293 649 424 594 386 649 b 174 549 226 649 174 611 b 538 196 174 386 538 447 b 318 -17 538 76 444 -7 l 311 -65 b 422 -183 381 -72 422 -119 b 265 -312 422 -276 347 -312 b 207 -306 242 -312 211 -307 l 219 -235 b 261 -239 219 -235 242 -239 b 339 -182 300 -239 339 -228 b 260 -125 339 -144 307 -125 b 233 -128 246 -125 233 -128 l 249 -15 b 40 136 126 0 68 75 "},"ŏ":{"ha":846,"x_min":0,"x_max":0,"o":"m 158 361 b 422 82 158 199 268 82 b 689 361 578 82 689 200 b 422 640 689 521 578 640 b 158 361 267 640 158 519 m 46 361 b 424 740 46 579 208 740 b 800 361 642 740 800 578 b 422 -18 800 144 639 -18 b 46 361 206 -18 46 142 m 422 815 b 246 990 306 815 246 893 l 333 990 b 422 892 333 936 357 892 b 511 990 486 892 511 936 l 599 990 b 422 815 599 893 539 815 "},"Œ":{"ha":1500,"x_min":0,"x_max":0,"o":"m 53 486 b 549 990 53 772 267 990 b 685 972 596 990 642 983 l 1413 972 l 1413 869 l 876 869 b 1040 546 967 789 1026 675 l 1368 546 l 1368 444 l 1043 444 b 875 101 1032 304 971 185 l 1428 101 l 1428 0 l 683 0 b 547 -18 640 -11 594 -18 b 53 486 265 -18 53 197 m 169 486 b 549 88 169 256 333 88 b 928 486 764 88 928 256 b 549 885 928 714 764 885 b 169 486 333 885 169 714 "},"№":{"ha":1556,"x_min":0,"x_max":0,"o":"m 1081 742 b 1233 588 1081 657 1139 588 b 1386 742 1328 588 1386 657 b 1233 899 1386 826 1328 899 b 1081 742 1139 899 1081 826 m 986 742 b 1233 990 986 876 1088 990 b 1481 742 1379 990 1481 876 b 1233 496 1481 607 1379 496 b 986 742 1088 496 986 607 m 108 972 l 221 972 l 757 178 l 757 972 l 868 972 l 868 0 l 757 0 l 221 792 l 221 0 l 108 0 m 1006 419 l 1460 419 l 1460 317 l 1006 317 "},"Ǻ":{"ha":875,"x_min":0,"x_max":0,"o":"m 313 1032 b 436 1153 313 1103 365 1153 b 563 1033 511 1153 563 1103 b 510 932 563 989 542 953 l 858 0 l 744 0 l 628 315 l 247 315 l 131 0 l 17 0 l 365 931 b 313 1032 332 953 313 989 m 438 849 l 282 413 l 594 413 m 489 1386 l 610 1386 l 486 1189 l 390 1189 m 381 1032 b 438 974 381 997 403 974 b 494 1033 474 974 494 997 b 436 1090 494 1067 474 1090 b 381 1032 403 1090 381 1067 "},"ǻ":{"ha":708,"x_min":0,"x_max":0,"o":"m 47 222 b 325 460 47 360 163 460 b 515 394 417 460 486 425 l 515 483 b 340 643 515 585 447 643 b 128 581 251 643 179 611 l 83 661 b 350 740 132 692 228 740 b 625 476 547 740 625 631 l 625 0 l 531 0 l 518 61 b 322 -18 481 18 419 -18 b 47 222 164 -18 47 82 m 158 224 b 340 74 158 140 229 74 b 519 224 446 74 519 136 b 339 372 519 314 447 372 b 158 224 229 372 158 308 m 403 1269 l 524 1269 l 400 1072 l 304 1072 m 231 911 b 354 1032 231 982 283 1032 b 481 913 429 1032 481 982 b 356 790 481 842 428 790 b 231 911 283 790 231 842 m 299 911 b 356 853 299 876 321 853 b 413 913 392 853 413 876 b 354 969 413 946 392 969 b 299 911 321 969 299 946 "},"Ǽ":{"ha":1126,"x_min":0,"x_max":0,"o":"m 507 972 l 1039 972 l 1039 869 l 690 869 l 690 546 l 994 546 l 994 444 l 690 444 l 690 101 l 1053 101 l 1053 0 l 578 0 l 578 315 l 288 315 l 133 0 l 11 0 m 335 413 l 578 413 l 578 869 l 557 869 m 721 1231 l 842 1231 l 718 1033 l 622 1033 "},"ǽ":{"ha":1249,"x_min":0,"x_max":0,"o":"m 47 222 b 325 460 47 360 163 460 b 515 394 417 460 486 425 l 515 483 b 340 643 515 585 447 643 b 128 581 251 643 179 611 l 83 661 b 350 740 132 692 228 740 b 593 600 482 740 561 685 b 861 740 654 689 751 740 b 1204 371 1074 740 1204 588 l 1204 338 l 625 338 b 883 79 626 176 733 79 b 1108 192 1006 79 1074 143 l 1181 139 b 883 -18 1140 71 1047 -18 b 579 136 749 -18 638 36 b 322 -18 549 61 467 -18 b 47 222 164 -18 47 82 m 158 224 b 340 74 158 140 229 74 b 517 224 446 74 517 136 b 339 372 517 314 447 372 b 158 224 229 372 158 308 m 1092 419 b 861 646 1085 569 981 646 b 629 419 744 646 642 565 m 633 1007 l 754 1007 l 631 810 l 535 810 "},"Ǿ":{"ha":1097,"x_min":0,"x_max":0,"o":"m 54 486 b 550 990 54 772 268 990 b 824 908 653 990 747 960 l 896 999 l 965 943 l 894 853 b 1046 486 989 763 1046 633 b 549 -18 1046 200 832 -18 b 272 63 444 -18 350 11 l 201 -28 l 132 28 l 203 118 b 54 486 110 208 54 338 m 171 486 b 275 208 171 375 210 278 l 756 822 b 550 885 699 861 626 885 b 171 486 333 885 171 714 m 929 486 b 824 764 929 596 889 693 l 340 149 b 550 88 400 108 471 88 b 929 486 764 88 929 256 m 578 1231 l 699 1231 l 575 1033 l 479 1033 "},"ǿ":{"ha":846,"x_min":0,"x_max":0,"o":"m 46 361 b 424 740 46 579 208 740 b 629 682 500 740 571 719 l 682 750 l 746 699 l 693 632 b 800 361 761 564 800 469 b 422 -18 800 144 639 -18 b 225 33 349 -18 281 0 l 172 -33 l 108 17 l 160 82 b 46 361 89 150 46 247 m 158 361 b 228 168 158 283 183 217 l 564 600 b 422 640 524 625 476 640 b 158 361 267 640 158 519 m 689 361 b 625 544 689 432 665 496 l 290 117 b 422 82 328 93 372 82 b 689 361 578 82 689 200 m 453 1007 l 574 1007 l 450 810 l 354 810 "},"Ẁ":{"ha":1308,"x_min":0,"x_max":0,"o":"m 654 807 l 418 0 l 293 0 l 15 972 l 136 972 l 360 143 l 599 972 l 710 972 l 949 143 l 1174 972 l 1293 972 l 1017 0 l 890 0 m 697 1033 l 600 1033 l 478 1231 l 597 1231 "},"ẁ":{"ha":1133,"x_min":0,"x_max":0,"o":"m 567 574 l 374 0 l 253 0 l 10 722 l 129 722 l 318 128 b 513 722 318 128 319 131 l 621 722 b 814 128 813 131 814 128 l 1004 722 l 1124 722 l 879 0 l 758 0 m 621 810 l 524 810 l 401 1007 l 521 1007 "},"Ẃ":{"ha":1247,"x_min":0,"x_max":0,"o":"m 654 807 l 418 0 l 293 0 l 15 972 l 136 972 l 360 143 l 599 972 l 710 972 l 949 143 l 1174 972 l 1293 972 l 1017 0 l 890 0 m 688 1231 l 808 1231 l 685 1033 l 589 1033 "},"ẃ":{"ha":1133,"x_min":0,"x_max":0,"o":"m 567 574 l 374 0 l 253 0 l 10 722 l 129 722 l 318 128 b 513 722 318 128 319 131 l 621 722 b 814 128 813 131 814 128 l 1004 722 l 1124 722 l 879 0 l 758 0 m 615 1007 l 736 1007 l 613 810 l 517 810 "},"Ẅ":{"ha":1308,"x_min":0,"x_max":0,"o":"m 654 807 l 418 0 l 293 0 l 15 972 l 136 972 l 360 143 l 599 972 l 710 972 l 949 143 l 1174 972 l 1293 972 l 1017 0 l 890 0 m 471 1128 b 540 1197 471 1165 501 1197 b 610 1128 581 1197 610 1165 b 540 1058 610 1089 581 1058 b 471 1128 501 1058 471 1089 m 699 1128 b 768 1197 699 1165 728 1197 b 838 1128 807 1197 838 1165 b 768 1058 838 1089 807 1058 b 699 1128 728 1058 699 1089 "},"ẅ":{"ha":1133,"x_min":0,"x_max":0,"o":"m 567 574 l 374 0 l 253 0 l 10 722 l 129 722 l 318 128 b 513 722 318 128 319 131 l 621 722 b 814 128 813 131 814 128 l 1004 722 l 1124 722 l 879 0 l 758 0 m 382 907 b 451 976 382 944 413 976 b 521 907 492 976 521 944 b 451 838 521 868 492 838 b 382 907 413 838 382 868 m 610 907 b 679 976 610 944 639 976 b 749 907 718 976 749 944 b 679 838 749 868 718 838 b 610 907 639 838 610 868 "},"Ỳ":{"ha":739,"x_min":0,"x_max":0,"o":"m 314 456 l 13 972 l 142 972 l 369 563 l 601 972 l 726 972 l 425 456 l 425 0 l 314 0 m 421 1033 l 324 1033 l 201 1231 l 321 1231 "},"ỳ":{"ha":706,"x_min":0,"x_max":0,"o":"m 199 -249 l 303 7 l 8 722 l 128 722 l 357 142 l 579 722 l 696 722 l 308 -249 m 433 810 l 336 810 l 214 1007 l 333 1007 "},"Ț":{"ha":710,"x_min":0,"x_max":0,"o":"m 292 869 l 29 869 l 29 972 l 665 972 l 665 869 l 404 869 l 404 0 l 292 0 m 272 -119 b 343 -46 272 -79 303 -46 b 421 -128 389 -46 421 -79 b 321 -329 421 -217 376 -282 l 274 -283 b 335 -190 294 -267 328 -229 b 272 -119 296 -185 272 -153 "},"ț":{"ha":410,"x_min":0,"x_max":0,"o":"m 103 874 l 213 874 l 213 722 l 371 722 l 371 629 l 213 629 l 213 257 b 346 90 213 122 251 90 b 376 92 360 90 376 92 l 376 -6 b 310 -10 376 -6 347 -10 b 103 247 165 -10 103 85 l 103 629 l 18 629 l 18 722 l 103 722 m 183 -119 b 254 -46 183 -79 214 -46 b 332 -128 300 -46 332 -79 b 232 -329 332 -217 288 -282 l 185 -283 b 246 -190 206 -267 239 -229 b 183 -119 207 -185 183 -153 "}}}
